<?xml version="1.0" encoding="utf-8"?>
<!-- Generator: Adobe Illustrator 23.0.1, SVG Export Plug-In . SVG Version: 6.00 Build 0)  -->
<svg version="1.1" id="Layer_1" xmlns="http://www.w3.org/2000/svg" xmlns:xlink="http://www.w3.org/1999/xlink" x="0px" y="0px"
	 viewBox="0 0 500 550" style="enable-background:new 0 0 500 550;" xml:space="preserve">
<style type="text/css">
	.st0{fill:#B7B7B7;}
	.st1{fill:#FFFFFF;}
	.st2{fill:#C5C5C5;}
	.st3{fill:#CDCDCB;}
	.st4{fill:#8B0000;}
	.st5{fill:#E31E25;}
	.st6{fill:#FEFEFF;}
</style>
<g>
	<path class="st0" d="M372.2,321.4l3.4-12.3c0.3-1,0.5-1.9,0.8-2.9c7.4-26.7,16.5-67.3,23.8-106.9c1.2-6.4,2.3-12.7,3.2-18.7
		c3.6-22.5,5.4-41.6,5.5-57c-3.3-2.4-6.6-4.8-10-7c-1.5,2.5-4.5,6.8-9.4,11.6c0.5,4.9,0.8,9.9,0.8,14.9c0,20.9-4.7,40.7-13.1,58.5
		c-0.5,11.2-2.3,22.1-5.3,32.4c-2.8,9.6-6.5,18.7-11.2,27.3c0,0,0,0,0,0c-11,20.2-26.8,37.3-46,49.8c-1.9,1.3-3.9,2.5-5.8,3.6
		c-1.3,0.8-2.7,1.5-4.1,2.3c-0.3,0.2-0.6,0.3-0.9,0.5c-0.2,0.1-0.4,0.2-0.6,0.3c-2,1.1-4.1,2.1-6.2,3l-0.2,0.5
		c-2.3,1.4-4.6,2.7-7,3.9c-0.7,0.4-1.5,0.8-2.2,1.1c-3.7,1.8-7.6,3.5-11.5,4.9c-3.2,1.2-6.5,2.2-9.8,3.1l0.6,0.1l16.3-0.9
		c7.2-0.4,14.6-0.9,22-1.6l13.6-1.2l4.5-0.5c6.2-0.8,11.4-1.6,17.5-2.6l9.9-1.6l7.6-1.5c4.9-1,9.6-2,14.1-3.1L372.2,321.4z"/>
	<path class="st0" d="M142.5,326.4c4.7,0.8,9.6,1.6,14.9,2.4l7.6,1.1l7.6,0.9c7.3,0.8,14.6,1.5,21.8,2.1l6.4,0.5
		c-3.3-1-6.5-2.2-9.7-3.5c0,0,0,0-0.1,0c-2.8-1.1-5.6-2.4-8.4-3.8c-0.1,0-0.1,0-0.2-0.1c-5.8-2.9-11.5-6.3-16.8-10.1c0,0,0,0,0,0
		c-8-5.7-16.8-14.7-23.6-22.2c0.1-0.2,0.1-0.3,0.2-0.4c-0.5-0.5-0.9-0.9-1.4-1.4c0,0-0.1-0.1-0.1-0.1c-0.9-1-1.9-1.9-2.8-2.9
		c-0.1-0.1-0.2-0.2-0.3-0.3c-0.9-0.9-1.7-1.9-2.5-2.9c-0.1-0.2-0.3-0.3-0.4-0.5c-0.8-0.9-1.6-1.9-2.4-2.8c-0.2-0.2-0.3-0.4-0.5-0.6
		c-0.8-1-1.5-2-2.3-2.9c-0.1-0.2-0.3-0.4-0.4-0.5c-0.9-1.2-1.7-2.4-2.6-3.6c-0.1-0.1-0.1-0.2-0.2-0.3c-0.8-1.1-1.5-2.2-2.2-3.3
		c-0.4-0.6-0.8-1.3-1.2-1.9c-0.4-0.6-0.8-1.2-1.1-1.8c-0.4-0.7-0.8-1.4-1.3-2.1c-0.3-0.5-0.7-1.1-1-1.6c-0.4-0.7-0.8-1.5-1.2-2.2
		c-0.3-0.5-0.6-1.1-0.9-1.6c-0.4-0.8-0.8-1.5-1.2-2.3c-0.3-0.5-0.5-1.1-0.8-1.6c-0.4-0.8-0.8-1.6-1.1-2.4c-0.2-0.5-0.5-1-0.7-1.6
		c-0.4-0.8-0.7-1.7-1.1-2.5c-0.2-0.5-0.4-1-0.6-1.5c-0.4-0.9-0.7-1.8-1-2.6c-0.2-0.5-0.4-1-0.6-1.5c-0.3-0.9-0.7-1.9-1-2.8
		c-0.2-0.5-0.3-0.9-0.5-1.4c-0.3-1-0.6-2-1-3c-0.1-0.4-0.3-0.8-0.4-1.2c-0.1-0.3-0.2-0.7-0.3-1c-0.2-0.6-0.3-1.3-0.5-1.9
		c-0.1-0.5-0.3-1-0.4-1.5c-0.2-0.9-0.5-1.9-0.7-2.8c-0.1-0.6-0.3-1.1-0.4-1.7c-0.2-0.9-0.4-1.8-0.6-2.7c-0.1-0.6-0.2-1.2-0.4-1.9
		c-0.2-0.9-0.3-1.8-0.5-2.6c-0.1-0.7-0.2-1.3-0.3-2c-0.1-0.8-0.3-1.7-0.4-2.5c-0.1-0.7-0.2-1.5-0.3-2.2c-0.1-0.8-0.2-1.6-0.3-2.4
		c-0.1-0.8-0.2-1.7-0.2-2.5c-0.1-0.7-0.1-1.4-0.2-2.2c-0.1-1-0.1-2-0.2-3c0-0.6-0.1-1.2-0.1-1.7c-0.1-1.6-0.1-3.2-0.1-4.8
		c0-3,0.1-6,0.3-8.9c-4.6-13.8-7.1-28.4-7.1-43.7c0-13,1.8-25.5,5.2-37.5c-14.7,7.9-24.7,15.2-29.5,19c0.1,15.2,2,34,5.5,56.1
		c1,6,2,12.3,3.2,18.7c7.1,38.5,17.1,77.5,24.4,104l1.1,3.9c0.4,1.6,0.9,3.1,1.3,4.5l1.9,6.7c4.7,1.3,9.4,2.6,14.3,3.8l9.3,2.2v0
		L142.5,326.4z"/>
	<path class="st1" d="M409.2,95.1c-0.1,0.1-0.3,0.2-0.4,0.3c-0.1,0.1-0.2,0.2-0.4,0.3c0,0,0,0-0.1,0c-0.1,0.1-0.3,0.2-0.4,0.3
		c-0.1,0.1-0.2,0.1-0.2,0.2c-0.2,0.1-0.4,0.3-0.6,0.4c-0.1,0.1-0.2,0.1-0.3,0.2c-0.1,0.1-0.2,0.1-0.3,0.2c-0.1,0-0.1,0.1-0.2,0.1
		c0,0,0,0,0,0c-0.1,0-0.1,0.1-0.2,0.1c0,0,0,0-0.1,0c-0.1,0-0.1,0.1-0.2,0.1c-0.2,0.1-0.3,0.2-0.4,0.3c0,0,0,0,0,0c0,0,0,0,0,0
		c0,0,0,0,0,0c9.7,6.1,17.7,12,23.8,17.2l0,0l0.2,0l-0.4,3.1c0,0,0,0.2,0,0.6c0.3-2.4,0.5-3.7,0.5-3.7c2.6,18-0.9,54.8-4.9,86.5
		l1.3-3.7c0,0,10.8-31,14.3-71.8c0-0.3,0.1-0.6,0.1-1c0.3-3.8,0.6-7.7,0.8-11.6c0-0.2,0-0.4,0-0.6c0-0.2,0-0.3,0-0.5
		c0-0.1,0-0.3,0-0.4c0-0.2,0-0.4,0-0.6c0-1,0.1-1.5,0.1-1.5s-9.7-8-27.5-18.5C412.1,92.8,410.5,94.1,409.2,95.1z"/>
	<path class="st1" d="M373.7,75.6c0,0,0.1,0,0.1,0c2.7-0.3,5.2-0.6,7.7-1c-4.1-1.9-8.3-3.7-12.8-5.5c1.4,2.2,2.7,4.4,4,6.7
		C373,75.7,373.4,75.6,373.7,75.6z"/>
	<path class="st1" d="M50.3,117.9c0.3-0.4,0.9-1.2,1.7-2.2c5.5-6.6,23.1-24.5,59.8-39.2c2.6-4.7,5.4-9.2,8.4-13.5
		C67.8,83,39.5,109.7,39.5,109.7s0,0.5,0.1,1.5c0,0.2,0,0.4,0,0.6c0,0.1,0,0.3,0,0.4c0,0.2,0,0.3,0,0.5c0,0.4,0,0.8,0.1,1.2
		c0,0.5,0.1,1.1,0.1,1.7c0.2,3.5,0.4,6.9,0.7,10.3c0,0.5,0.1,1,0.1,1.5c3.1,33.8,11.1,60.6,13.5,68.1
		C50.6,166.1,48,134.3,50.3,117.9z"/>
	<path class="st1" d="M403.1,259.7L403.1,259.7c0.1-0.2,0.1-0.3,0.1-0.3C403.2,259.5,403.2,259.6,403.1,259.7L403.1,259.7z"/>
	<path class="st2" d="M52.1,115.8c-0.9,1-1.4,1.7-1.7,2.2c0,0,10.4,88.1,24.4,137c5.3,17.3,11.8,35.3,19.7,53.6
		c-7.2-26-17.8-66.9-25.2-107.3c-1.2-6.3-2.3-12.7-3.3-18.9c-3.6-22.4-5.8-43.9-5.6-61.7c0,0,0,0,0,0v-0.7
		c1.1-1,16.4-14.4,44.4-28.1c2.1-5.2,4.5-10.2,7.1-15C75.2,91.3,57.6,109.2,52.1,115.8z"/>
	<path class="st2" d="M427.3,115.8l1.9-0.9c-6.1-5.2-14.1-11.1-23.8-17.2c0,0-0.1,0-0.1,0c-0.1,0.1-0.2,0.1-0.2,0.1c0,0-0.1,0-0.1,0
		l-0.1,0c0,0-0.4,4.5-1.8,9.4c5,3.3,10,6.8,14.9,10.6c0.2,0.2,0.4,0.3,0.6,0.5c0.1,0.1,0.8,0.6,1.2,0.9L427.3,115.8z"/>
	<path class="st1" d="M369.9,150.8c3.3,9.5,5.5,19.6,6.6,30c3.6-12,5.6-24.6,5.6-37.7c0-2.8-0.1-5.6-0.3-8.4
		c-4.1,3.1-9,6.1-14.8,8.8C368.1,145.9,369.1,148.3,369.9,150.8z"/>
	<path class="st1" d="M347.8,76.9c5.6,0,10.9-0.2,15.9-0.5c-4.8-8.1-10.5-15.6-16.9-22.6C348.2,57.1,350.3,64.5,347.8,76.9z"/>
	<path class="st1" d="M102.9,143c0,7.7,0.7,15.2,2,22.6c1.4-6.5,3.3-12.8,5.7-18.9c7.5-19.7,19.4-37.3,34.4-51.5
		c11.6-11.7,24.9-21.6,38.8-29.1h0c1.9-1,3.7-2,5.6-2.9c1-0.5,1.9-0.9,2.9-1.4c1.5-0.7,3.1-1.4,4.6-2c0,0,0.1-0.1,0.1-0.1
		c0,0,0.1-0.1,0.1-0.1c0.1-0.1,0.2-0.3,0.4-0.4c0.5-0.6,1-1.2,1.5-1.9c0.1-0.1,0.2-0.2,0.3-0.4c0.2-0.2,0.4-0.5,0.6-0.7
		c0.2-0.2,0.3-0.4,0.5-0.5c0,0,0,0,0,0c0,0,0,0,0,0c6.9-6.5,18.2-13,35.4-13c8.5,0,17.8,1.6,27.7,4.7l41.3,13.1l7.2,2.3l-11.2,0.6
		l-3.7,0.2c0.7,0.3,1.4,0.6,2.2,0.9c0,0,0,0,0.1,0c1.2,0.5,21.4,9.2,46.2-12.2C319.9,25.5,283.2,8.7,242.5,8.7
		C165.6,8.7,102.9,69,102.9,143z M270.3,16.3C270.3,16.3,270.3,16.3,270.3,16.3C270.3,16.3,270.3,16.3,270.3,16.3L270.3,16.3z
		 M261.3,17.7c0.1,0.3,0.1,0.7,0.2,1c0,0.1,0,0.2,0,0.3c0,0.2,0.1,0.4,0.1,0.6c0.1,0.3,0.1,0.6,0.2,0.9c0,0.2,0.1,0.4,0.1,0.6
		c0.2,0.9,0.3,1.8,0.5,2.7c0,0.2,0.1,0.5,0.1,0.7c0.2,1.2,0.4,2.4,0.6,3.6c0,0,0,0,0,0c0.2-0.3,0.4-0.7,0.6-1
		c1.6-2.6,3.2-5.5,4.7-8.3l5.8,0.9c-0.3,0.5-0.6,0.9-0.9,1.4c-1.8,2.8-3.7,6-5.6,9.5c1,4.4,2.1,8.4,3.2,11.9l-6.9-1.1
		c-1-3.1-2-6.5-3-10.1c-1.8,2.8-3.5,5.7-5.3,8.8l-2-0.3l-3.3-0.5c2.2-3.6,4.8-7.8,6.8-10.9c0.2-0.2,0.4-0.5,0.5-0.7
		c-0.9-3.3-1.9-7.4-2.8-11L261.3,17.7z M230.2,16.3h20v4.6h-6.4c0,5.4,0,12.9,0,17.8h-7.2V20.9h-6.4V16.3z M210.3,32.4l-0.1-1
		l-1.3-8.4c0,0-0.6-3.8,4-4.5l6.5-1c1.9-0.2,6.2-0.2,6.9,4.4l0,0c0.2,1.4,0.4,2.7,0.5,3.4c-0.9,0.2-1.1,0.2-2,0.4
		c-1.3,0.2-2.6,0.4-3.8,0.6c-0.2-1.3-0.1-0.8-0.3-2.2c-0.2-1.3-1.2-1.9-2.9-1.8c-1.5,0.1-2.2,0.7-2.2,1.7c0,0.2,0,0.3,0,0.5
		c0.3,1.9,0.6,4.2,0.9,5.8h0c0.2,1.2,0.4,2.6,0.7,4.3c0,0.2,0.1,0.3,0.1,0.5c0.3,1,1.2,1.4,2.6,1c1.7-0.4,2.4-1.2,2.2-2.6
		c-0.2-1.3-0.1-0.9-0.3-2.2c1.3-0.2,2.5-0.4,3.8-0.5c0.9-0.1,1.1-0.1,2-0.2c0.1,0.7,0.3,2.1,0.5,3.4v0c0.7,4.6-3.3,5.9-5.3,6.2
		l-6.5,1c-4.6,0.7-5.2-3.1-5.2-3.1L210.3,32.4z"/>
	<path class="st3" d="M429.5,114.8l-0.2,0l0,0l-1.9,0.9l-7.3,3.5l-0.9,0.4v0.7c0.2,17.8-2,39.3-5.6,61.8c-1,6.3-2.1,12.6-3.3,18.9
		c-7.5,40.4-18.1,81.3-25.2,107.3c7.2-16.5,13.2-32.9,18.2-48.8c0-0.1,0.1-0.2,0.1-0.3c12.8-43.1,23.4-122.7,25.8-140.9
		c0-0.4,0-0.6,0-0.6L429.5,114.8z"/>
	<path class="st4" d="M306.6,190.1c0,0,14.4,24.7,37.3,9.4c12.1-8.1,15.1-17.4,15.3-24.4c-1.3-9.1-3.5-17.9-6.7-26.3
		c-6.4,1.8-13.6,3.1-21.7,3.8c-1.6,0.1-3.3,0.2-5,0.3c-1.7,0.1-3.4,0.1-5.1,0.1c-0.4,0-0.8,0-1.2,0H319c-0.8,0-1.7,0-2.5,0l-4.8,0.1
		c0.5,2.8,0.8,5.5,0.8,8c0.1,5.9-0.9,11.1-2,15L306.6,190.1z"/>
	<path class="st4" d="M170.5,285.4c-4.9-6.2-10-13-13.9-18.7c-14.6-21.5-23.2-43.1-25.8-64.4c-2.8,1.7-5.4,4.1-8.1,7.2
		c-3,3.6-5.4,7.6-7.3,11.8c-1,2.5-0.9,4.8-0.1,6.8C120.3,238.3,138.1,271.2,170.5,285.4z M122.8,216.8c5.6,23.5,17.7,41.9,17.7,41.9
		c-19.2-21.1-21.4-36.1-21.4-36.1C120.4,220.6,121.6,218.7,122.8,216.8z"/>
	<path class="st4" d="M128.4,138.1C128.3,138.1,128.3,138.1,128.4,138.1c-1-0.9-2,0.4-3.4,3.1c-3.9,7.8-7,15.9-9.2,24.3
		c-1,3.9-0.6,4.4,1,3.7c0,0,0.1,0,0.1,0c4.8-2.2,10.2-4.3,16.1-6.1c0.5-2,1-4,1.6-6c0.1-0.4,0.2-0.8,0.4-1.2c1.1-3.5,2.3-7,3.8-10.4
		c0.2-0.5,0.4-0.9,0.6-1.4C135,143.3,131.4,141.1,128.4,138.1z M131.1,144.8c-0.3,0.7-0.6,1.4-0.8,2.1c-0.7,1.9-1.5,3.9-2.2,5.9
		c-0.5,1.4-0.9,2.8-1.3,4.2c-0.2,0.6-0.4,1.3-0.6,1.9c-0.2,0.8-0.5,1.6-0.7,2.4c-2.1,0.8-4.1,1.7-6.2,2.6c0.6-2.3,1.3-4.5,2.1-6.8
		c1.7-5.3,3.8-10.6,6.5-16.1c0.5,0.7,1,1.4,1.5,2C129.9,143.6,130.5,144.2,131.1,144.8z"/>
	<path class="st4" d="M189.2,81.5c0-0.1,0-0.3,0-0.4c0-0.2,0-0.4,0-0.7v-0.1c0-0.5,0.1-1,0.1-1.5c0-0.1,0-0.1,0-0.2c0,0,0,0,0,0
		c0-0.3,0.1-0.5,0.1-0.8c0-0.3,0.1-0.5,0.1-0.8c0-0.2,0.1-0.4,0.1-0.6c0-0.1,0.1-0.3,0.1-0.4c-0.9,0.5-1.9,1-2.8,1.5
		c-1.5,0.8-3.1,1.7-4.6,2.6v0c-1.8,1.1-3.5,2.1-5.3,3.3c0,0,0,0,0,0c-6.5,4.2-12.9,9.1-18.9,14.5c-9.8,8.8-18.3,18.9-25.4,29.8
		c-0.8,1.8-0.5,2.7-0.3,2.9c2.8,3.2,6.3,5.3,10.6,5.7c10.5-20.3,26.5-37.3,46.4-50.2c0-0.1,0-0.1,0-0.2c0-0.1,0-0.3,0-0.4
		c0-0.1,0-0.2,0-0.3c0-0.1,0-0.3,0-0.4c0-0.1,0-0.1,0-0.2v0c0-0.3,0-0.6,0-0.9c0-0.1,0-0.2,0-0.2c0-0.3,0-0.6,0-0.9
		c0-0.2,0-0.3,0-0.5C189.2,81.8,189.2,81.7,189.2,81.5z M148.1,114l-0.6,0.9l0,0l0,0c-2.8,4.1-6.2,9.4-9.4,15.2
		c-0.2-0.2-0.4-0.3-0.6-0.5c-0.5-0.8-0.9-1.6-1.3-2.4c-0.1-0.2-0.3-0.5-0.5-0.7c3.5-5.5,7.1-10.3,10.1-14.1c0.5-0.6,0.9-1.1,1.4-1.7
		c2.1-2.5,4-4.8,6.1-6.9c0.4-0.4,0.9-0.9,1.3-1.3c0.9-0.9,1.7-1.7,2.5-2.5c1.3-1.2,2.6-2.4,3.8-3.6l0.4-0.4c0.5-0.5,1-0.9,1.4-1.4
		l1.6-1.4l0.2-0.2c1.1-0.9,2.2-1.8,3.2-2.7l0.4-0.4c0.2-0.2,0.5-0.4,0.7-0.5c-0.5,0.5-0.9,0.9-1.4,1.4c-1.1,1.1-2.1,2.2-3.2,3.4
		l-0.9,0.9l-0.8,0.8l0,0l0,0c-0.4,0.4-0.7,0.8-1.1,1.2l-0.5,0.6c-1,1.1-2,2.3-3.1,3.5l-0.3,0.3c-0.8,0.9-1.5,1.9-2.3,2.8
		c-0.4,0.5-0.7,0.9-1.1,1.4C152.1,108.5,150.1,111.3,148.1,114z"/>
	<path class="st4" d="M113.5,209.4c0,0,0.1-0.1,0.1-0.1c1.3-2,2.7-3.9,4.2-5.7c3.8-4.4,7.7-7.6,11.6-9.8c0.2-0.1,0.4-0.2,0.6-0.3
		c-0.1-2.6-0.2-5.2-0.1-7.8c0.1-3,0.3-5.9,0.6-8.9c0.2-1.5,0.4-3.1,0.6-4.6c-6,2-11.3,4.3-16,6.6c-1.6,0.8-2.7,3-3,5.8
		c-0.9,7.3-1,14.6-0.5,21.7C111.9,209.4,112.4,211,113.5,209.4z M114.8,196.9c0-0.8,0.1-1.6,0.1-2.4c0.1-3.8,0.3-7.7,0.7-11l0,0v0
		c0.1-0.6,0.1-1.2,0.2-1.8c0.4-0.1,0.7-0.3,1.1-0.5c1.6-0.9,3.2-1.8,4.9-2.6c-0.3,1.9-0.5,3.8-0.7,5.7c-0.5,3.5-0.6,6.6-0.7,9.7
		c0,0.6-0.1,1.2-0.1,1.8c-1.7,2-3.6,3.9-5.4,5.9C114.8,199.9,114.8,198.4,114.8,196.9z"/>
	<path class="st4" d="M194.1,261.5c0-0.1,0-0.1,0-0.1c-0.7-3.6-1.6-7.5-2.7-11.5l-0.2-0.8c-1.6-5.8-3-9.8-3-9.8l-0.9-2.6l0.6-2.6
		l0.7-3.2c-19.3-20.6-34-32.6-47.4-31.9c-1.2,0.1-2.4,0.3-3.7,0.5c4,35.4,26.1,66.8,46,90.3c4.4,1.1,9.1,1.8,13.9,2.1
		C197.9,277.6,194.5,263.2,194.1,261.5z"/>
	<path class="st4" d="M152.3,133.4c-0.3,0.6-0.7,1.2-1,1.8c2.5-0.7,5.1-1.7,7.8-2.8c4-1.7,8.2-3.9,12.7-6.1
		c8.8-4.4,18.5-9.3,28.9-12.5c-4.4-6.6-7.9-13.3-9.8-20C176.9,102.9,162.9,115.7,152.3,133.4z"/>
	<path class="st4" d="M153.6,142.8c-2.4,0.8-4.7,1.3-7,1.6c-1.4,3.1-2.8,6.4-3.9,9.8c-0.6,1.7-1.1,3.3-1.6,5.1
		c-0.2,0.6-0.3,1.1-0.5,1.7c2.4-0.6,4.8-1.1,7.3-1.6c12.4-2.4,26.4-3.4,41.9-1.7c1-2.7,2-5.1,3.1-7.4c6.4-13.5,14.5-20.6,17.1-22.7
		c0.5-0.4,0.8-0.6,0.8-0.6c-0.2-0.2-0.3-0.4-0.5-0.6c-1.6-1.9-3.1-3.8-4.6-5.8c-11.3,2.8-22,8.2-32,13.2
		C166.7,137.4,160,140.8,153.6,142.8z"/>
	<path class="st4" d="M145.3,168.3C145.3,168.3,145.3,168.3,145.3,168.3c-2.3,0.5-4.6,1.1-6.8,1.7c-0.3,1.9-0.6,3.8-0.9,5.6
		c-0.4,2.8-0.6,5.7-0.7,8.4c-0.1,2.3-0.1,4.7,0,7c1.6-0.3,3.2-0.5,4.7-0.6c14.6-0.5,29.2,11.2,44.3,26.7c-0.7-3.1-1.2-6.1-1.6-9
		c-0.5-3.5-0.8-7-0.9-10.2c-0.1-3.1-0.1-6.1,0-8.9c0.1-1.8,0.2-3.5,0.3-5.2c0.5-5.8,1.5-10.8,2.5-14.9c0.3-1.1,0.6-2.2,0.9-3.2
		C171.5,164.3,157.5,165.6,145.3,168.3z"/>
	<path class="st5" d="M314.9,298.7C314.9,298.7,314.9,298.7,314.9,298.7c0-0.3,0-0.7-0.1-1C314.9,298.1,314.9,298.4,314.9,298.7z"/>
	<path class="st5" d="M313.5,294.7c-0.3-0.4-0.6-0.8-1-1.1c0,0,0,0,0,0C312.9,293.9,313.2,294.3,313.5,294.7z"/>
	<path class="st5" d="M314.1,295.6c0.3,0.6,0.6,1.3,0.7,1.9C314.7,296.9,314.4,296.3,314.1,295.6z"/>
	<path class="st5" d="M313.6,294.8c0.2,0.3,0.4,0.6,0.5,0.9C313.9,295.3,313.8,295,313.6,294.8z"/>
	<path class="st1" d="M127.8,140.9c-2.7,5.5-4.8,10.8-6.5,16.1c-0.7,2.3-1.4,4.6-2.1,6.8c2-0.9,4.1-1.7,6.2-2.6
		c0.2-0.8,0.4-1.6,0.7-2.4c0.2-0.7,0.4-1.3,0.6-1.9c0.4-1.4,0.9-2.8,1.3-4.2c0.7-2,1.5-3.9,2.2-5.9c0.3-0.7,0.5-1.4,0.8-2.1
		c-0.6-0.6-1.2-1.2-1.7-1.9C128.8,142.3,128.3,141.6,127.8,140.9z"/>
	<path class="st1" d="M120.3,195.6c0-0.6,0.1-1.2,0.1-1.8c0.1-3,0.2-6.2,0.7-9.7c0.2-1.9,0.4-3.7,0.7-5.7c-1.7,0.8-3.3,1.6-4.9,2.6
		c-0.4,0.2-0.7,0.4-1.1,0.5c-0.1,0.6-0.2,1.2-0.2,1.8v0l0,0c-0.5,3.4-0.6,7.3-0.7,11c0,0.8-0.1,1.6-0.1,2.4c0,1.5,0.1,3.1,0.1,4.6
		C116.7,199.5,118.5,197.6,120.3,195.6z"/>
	<path class="st1" d="M155.3,104.5c0.7-0.9,1.5-1.9,2.3-2.8l0.3-0.3c1-1.2,2.1-2.3,3.1-3.5l0.5-0.6c0.4-0.4,0.7-0.8,1.1-1.2l0,0l0,0
		l0.8-0.8l0.9-0.9c1.1-1.1,2.2-2.2,3.2-3.4c0.5-0.5,0.9-0.9,1.4-1.4c-0.2,0.2-0.4,0.4-0.7,0.5l-0.4,0.4c-1,0.9-2.1,1.8-3.2,2.7
		l-0.2,0.2l-1.6,1.4c-0.5,0.4-1,0.9-1.4,1.4l-0.4,0.4c-1.3,1.2-2.5,2.4-3.8,3.6c-0.8,0.8-1.6,1.6-2.5,2.5c-0.4,0.4-0.8,0.9-1.3,1.3
		c-2.1,2.1-4.1,4.4-6.1,6.9c-0.5,0.6-1,1.1-1.4,1.7c-3,3.8-6.7,8.6-10.1,14.1c0.2,0.2,0.3,0.4,0.5,0.7c0.4,0.8,0.9,1.6,1.3,2.4
		c0.2,0.2,0.4,0.3,0.6,0.5c3.2-5.8,6.6-11.1,9.4-15.2l0,0l0,0l0.6-0.9c2-2.7,4-5.5,6.1-8.1C154.6,105.5,154.9,105,155.3,104.5z"/>
	<path class="st6" d="M230.7,178.5l3.9,2c-21.3-1.1-31.9-7.5-38.1-13.4c0,0.1-0.1,0.3-0.1,0.4c-0.3,1.1-0.7,2.4-1.1,3.9
		c-2.3,9-4.5,25.1-0.1,44.6l4.2,2.3c0,0,29.5-11.1,44.6-20.8c1.9-1.3,3.8-2.7,5.7-4.2c1.9-1.7,3-2.6,3.6-3c0,0,0,0,0,0
		c8.8-7.5,9.7-10,9.7-10s1.1-2.1,0.2-3.6C249.8,180,230.7,178.5,230.7,178.5z M228.6,192.6c0,0.3,0,0.7,0,1c0.1,1,0.1,1.9,0.2,2.9
		c0,0,0,0-0.1,0c0.1,1.1,0.1,2.1,0.2,2.5c-1.8,1.2-3.7,2.4-5.7,3.4l-0.2-0.9c-0.3-2.1-0.5-4.2-0.7-6.3l-3.2,0.4c0,0,0.1,4.6,1.7,8
		c-2.9,1.4-5.8,2.7-8.5,3.7l-0.2-0.8c-0.6-3.6-1-7.2-1.2-10.8h-3.1c0,0-0.5,6.6,1.9,12.6c-5,1.8-8.5,2.7-8.5,2.7
		c-1.3-7-1.9-14.2-1.8-21.5l0,0l-3.2-4.7c11.2,4.2,20.8,5.2,27.3,5.2c0,0,0.1,0,0.1,0c0.9,0,1.8,0,2.7-0.1c0.3,0,0.5,0,0.8,0
		c3.5-0.2,5.5-0.7,5.5-0.7l-4.1,2.8C228.6,192.2,228.6,192.4,228.6,192.6z"/>
	<path class="st6" d="M292.3,192.4c0.4,1.2,0.7,2.7,0.7,4.4c0,0,4.3-10.6-3.5-18c0.3,1.1,0.6,2.1,0.7,2.9
		C292.2,185.1,292.6,189,292.3,192.4z"/>
	<g>
		<path class="st6" d="M268.2,179c-0.9,3.1-3.1,8.2-7.9,14.8c-13.7,19.9-62.3,37.7-62.3,37.7l-1.1,4.7c0,0,1.5,4.2,3.2,10.4
			c0,0,0,0,0,0.1c0.4,1.2,7.7,21.3,7.4,34.3c0,0,8.2-1.7,18-6.3l-6.4-0.1c0,0,24.9-8.7,42.8-29c3.6-4,6.6-7.8,9-11.2
			c3.5-11.7-3.2-21,6.9-27.4c5.2-3.3,7.9-7.1,9.2-10.6c-2.3,5.7-9.8,6.7-9.8,6.7c3.8-3.2,4.5-8.2,4-12.7c-1.7,7-8.5,11.1-8.5,11.1
			C281.3,185.9,274.7,176.1,268.2,179z M261.6,209.2l-0.1,1.2l-1.6,29.6l0,0c-1.6,1.5-3.2,3-4.8,4.4c-0.9,0.8-1.8,1.5-2.7,2.2
			l-1.7-27.9l-7.1,4.5v29.9c0,0,0,0,0,0c-2.2,1.5-4.3,2.8-6.3,3.9c-1,0.6-1.9,1.1-2.8,1.5l-3.2-28.5l-7,3.8l1.8,28.7
			c-2.1,0.8-3.8,1.5-5.3,1.9c-2.5,0.8-4,1.1-4,1.1l-5.4-28.6l-5.4-3.1c3.1-1.4,6-2.7,8.8-4c3.1-1.5,6.1-3,8.9-4.4
			c4.4-2.2,8.4-4.4,12.1-6.6c2.8-1.6,5.4-3.2,7.8-4.7c4.4-2.8,8.2-5.4,11.4-7.7c2.7-2,5-3.8,6.9-5.4c4.6-3.9,6.7-6.2,6.9-6.4
			L261.6,209.2z"/>
	</g>
	<path class="st2" d="M237.4,252.6L236,219c-3.7,2.1-7.7,4.3-12.1,6.6l0.5,8.4l7-3.8l3.2,28.5c0.9-0.5,1.8-1,2.8-1.5
		c2-1.1,4.1-2.5,6.3-3.9C241.5,254.6,239.4,251.4,237.4,252.6z"/>
	<path class="st2" d="M255.1,239.7v-33.1c-3.2,2.3-6.9,4.9-11.4,7.7c0,11.8-0.1,28.2,0,38.9c0,0,0,0,0,0v-29.9l7.1-4.5l1.7,27.9
		c0.9-0.7,1.8-1.5,2.7-2.2c1.6-1.4,3.2-2.8,4.8-4.4C258.3,241.6,256.7,238.3,255.1,239.7z"/>
	<path class="st2" d="M259.9,240l1.6-29.6C260.9,220.1,260.3,231.3,259.9,240L259.9,240z"/>
	<path class="st2" d="M262,201.1c-0.1,2.5-0.3,5.2-0.5,8.1l7.3-14.5C268.7,194.9,266.6,197.3,262,201.1z"/>
	<path class="st2" d="M220.3,260.9l-5.3-30.9c-2.8,1.3-5.7,2.7-8.8,4l5.4,3.1l5.4,28.6c0,0,1.4-0.3,4-1.1c1.4-0.5,3.2-1.1,5.3-1.9
		C224.1,263.5,221.7,260.4,220.3,260.9z"/>
	<path d="M215,229.9l5.3,30.9c1.4-0.5,3.8,2.6,5.9,1.8l-1.8-28.7l-0.5-8.4C221.1,227,218.1,228.4,215,229.9z"/>
	<path d="M243.7,214.3c-2.4,1.5-5,3.1-7.8,4.7l1.4,33.6c2-1.2,4.1,2,6.3,0.6C243.6,242.5,243.7,226.1,243.7,214.3z"/>
	<path d="M262,201.1c-1.9,1.6-4.2,3.4-6.9,5.4v33.1c1.6-1.4,3.2,1.9,4.8,0.3c0.4-8.7,1-19.9,1.6-29.6l0.1-1.2
		C261.7,206.3,261.9,203.6,262,201.1z"/>
	<path class="st2" d="M227.2,189.9c0.5,0,0.9,0,1.4-0.1c0,0.7,0,1.5,0.1,2.2l4.1-2.8C232.7,189.3,230.7,189.7,227.2,189.9z"/>
	<path class="st2" d="M226.5,199.1c-1,1.8-2.7,2.3-3.3,2.5l0.2,0.9c2-1.1,3.9-2.2,5.7-3.4c-0.1-0.4-0.1-1.4-0.2-2.5
		C228.6,196.6,227.5,197.2,226.5,199.1z"/>
	<path class="st2" d="M223.6,190c-6.5,0-16-1-27.3-5.2l3.2,4.7l0,0c0-1.2,0-2.3,0.1-3.5c1.9,0.6,4,1.3,6.2,1.8
		c-0.2,6.3,0.2,12.5,1.1,18.6c0,0-0.8,0.2-2.5,2.1c-1.4,1.7-2.7,2.2-3,2.4c0,0-0.1,0-0.1,0s3.5-0.9,8.5-2.7
		c-2.4-6-1.9-12.6-1.9-12.6h3.1c-0.1-2.3-0.2-4.5-0.2-6.8c2,0.4,4.1,0.6,6.3,0.8c0,4.1,0.2,8.2,0.8,12.2c-0.2,0.1-1,0.5-2.4,2.1
		c-1.3,1.5-2.7,2.2-3.2,2.5l0.2,0.8c2.6-1,5.5-2.2,8.5-3.7c-1.7-3.4-1.7-8-1.7-8l3.2-0.4c-0.1-1.8-0.2-3.5-0.2-5.3
		C222.7,190,223.1,190,223.6,190z"/>
	<path d="M204.4,208.6c1.7-1.9,2.5-2.1,2.5-2.1c-0.9-6.1-1.3-12.4-1.1-18.6c-2.2-0.5-4.3-1.1-6.2-1.8c-0.1,1.2-0.1,2.3-0.1,3.5
		c-0.1,7.2,0.5,14.4,1.8,21.5c0,0,0,0,0.1,0C201.7,210.9,203,210.3,204.4,208.6z"/>
	<path d="M215.5,204.1c1.4-1.6,2.2-2,2.4-2.1c-0.5-4-0.8-8.1-0.8-12.2c-2.2-0.2-4.3-0.5-6.3-0.8c0,2.3,0,4.5,0.2,6.8
		c0.2,3.6,0.6,7.3,1.2,10.8C212.8,206.3,214.2,205.7,215.5,204.1z"/>
	<path d="M227.2,189.9c-0.3,0-0.5,0-0.8,0c-0.9,0-1.8,0.1-2.7,0.1c0,0-0.1,0-0.1,0c-0.4,0-0.9,0-1.3,0c0,1.8,0.1,3.6,0.2,5.3
		c0.1,2.1,0.4,4.2,0.7,6.3c0.6-0.2,2.3-0.7,3.3-2.5c1.1-1.9,2.1-2.5,2.3-2.6c0,0,0.1,0,0.1,0c-0.1-1-0.2-1.9-0.2-2.9
		c0-0.3,0-0.7,0-1c0-0.2,0-0.4,0-0.5c0-0.7-0.1-1.5-0.1-2.2C228.1,189.9,227.6,189.9,227.2,189.9z"/>
	<path class="st6" d="M220.1,136.9c-15,8.9-18.1,23-18.1,23s1.8,1.5,4.9,3.5c2-6.6,8.2-19.4,26.5-25.5c0.3-0.1,0.5,0,0.6,0.3
		c0.1,0.3,0,0.5-0.2,0.7c0,0,0,0,0,0c-0.5,0.5-16.2,16.8-14.7,30.2c1.8-7.1,6.4-16.2,17.5-23.7c0.2-0.2,0.5-0.1,0.7,0.1
		c0.2,0.2,0.2,0.5,0,0.7c0,0-0.3,0.3-0.7,0.7c0,0,0,0,0,0c-2,4.3-7.4,16.9-4.2,25c0.9-3.7,2.5-7.7,5.1-11.9v0l0,0
		c1.4-2.3,3.2-4.6,5.3-6.9c0.2-0.2,0.5-0.2,0.7-0.1c0.2,0.2,0.3,0.5,0.1,0.7c0,0-2.6,12.6,4.2,12.6c0,0,0,0,0,0c1-0.3,2-0.7,3-1.2
		c0,0,0,0,0,0l5.2-2.8c1.9-1.1,4.2-2.3,6.8-3.5c0.1,0,0.2-0.1,0.2-0.1c4.3-1.8,7.4-2.3,9.5-2.4h0.1c2-0.1,3.1,0.3,3.4,0.4
		c0,0,0.1,0,0.1,0l0,0c3,0.9,3.7,2.8,3.7,2.8c-6.8-1.5-12.4,6.1-12.4,6.1c-1.2,1.5-2.3,3.1-3,4.5c16.7-2.3,24.6,2.3,28.4,7
		c0-0.7,0.8-25.5-11.9-38.4c0.3,0.2,5.1,2.9,8.3,6.9c0,0-0.2-6.4-11.2-12.4c0,0,3.6-0.2,5.7,0.4c0,0-13.2-10.1-35.9-9.1
		c0,0,7.6,3.3,11.1,7.8c-0.4-0.2-10.7-5.1-28-0.3c0,0-0.1,0-0.1,0c-2,0.6-4.1,1.4-6.2,2.2c-1.4,0.6-2.7,1.3-3.9,2
		C220.9,137.1,220.7,137.3,220.1,136.9z"/>
	<path class="st3" d="M280,159.6c0,0-0.7-1.9-3.7-2.8c0,0-6.9,1.2-13.1,7.2l0.1,0c0,0-2,1.9-5.4,4.2c-2.8,1.9-6.4,3.9-10.5,5.2
		c2.7-0.3,5.5-0.7,8.3-1.4c3.2-0.8,6.1-1.3,8.8-1.7c0.8-1.4,1.8-3.1,3-4.5C267.5,165.7,273.2,158.2,280,159.6z"/>
	<path class="st2" d="M218.7,121.6c7.2-2.6,13.9-4.2,20.1-5.1c-4.4-2.4-10.5-3.3-10.5-3.3c33.6-2.5,50.1,6.9,51,7.4c0,0,0,0,0,0
		l-3-3.9c11.3,4.6,20.4,14.6,21,15.2c-21.4-39.2-84.3-21.8-84.3-21.8L218.7,121.6z"/>
	<path class="st6" d="M214.4,81.9c0,0-2.4,9.3-1.4,18.6c1.4-0.5,3.7-1.3,6.9-2C216.3,94.4,213.5,88.8,214.4,81.9z"/>
	<path class="st6" d="M250.2,95.8c-1.9-1.4-3.7-2.7-5.2-4.1C246.5,93.1,248.3,94.5,250.2,95.8z"/>
	<path class="st6" d="M244,57.3l-5.4,7.8c3.9-3.7,8.8-5.8,13-7.1c5.1-1.5,9.1-1.8,9.1-1.8c-18.2-5.8-31.4-5.1-40.9-1.7
		c-11.1,4.6-14.9,13.5-16.2,19.6c1.8-0.8,3.3-1.5,4.7-2C214.2,66.1,225.2,58.9,244,57.3z"/>
	<path class="st6" d="M262,92.1c0,0-13.1-11-10.4-21c0,0,14.7-3.7,33.2,5.7c18.5,9.4,30.1,10.7,41.2,6.1c0,0-10.5-0.9-13.5-2.9
		c0,0,13.5,1.7,26.1-5.6c1.7-5.4,1.7-10.4,1.7-10.4s-20.5,20.3-47.6,7.8c-27-12.4-49.5-7.4-54.3-6.1C238.3,69.3,238.7,83.9,262,92.1
		z"/>
	<path class="st6" d="M330.9,85.8c0,0,24.4,8.8,54.4,3.5c0,0-16.2,9.1-49.9,8.3c0,0,19.8,8.8,53.3,2c-6.3-0.9-11.4-2.5-11.4-2.5
		c25.8-1.4,35.7-21.7,36-22.4C385.6,89.9,330.9,85.8,330.9,85.8z"/>
	<path class="st6" d="M337.6,142.3c41.5-6.2,54-32,54-32c-6.8,5.5-13.8,9.4-19.9,12.2C364.1,129,352.8,136.8,337.6,142.3z"/>
	<path class="st6" d="M347,127c-8.9,4.6-21.4,7.1-29,8c4.3,0.9,10.2,1.3,18.4,0.2C344.1,131.5,346.8,127.3,347,127z"/>
	<path class="st6" d="M302.1,202c-1.7-2.9-3-5.7-4-8c-0.6,11.3-8.9,15.1-8.9,15.1l6,5.3c0,0-1.3,15.6-17.9,35.2
		c21.1-12.4,23.8-31.4,23.8-31.4l6.8,4.4l0.3-7.3c-5.6-3.6-10.1-7.8-10.1-7.8C299.3,206.5,300.8,204.2,302.1,202z"/>
	<path class="st6" d="M226.9,287.2c-0.7,0.4-1.4,0.7-2.1,1.1c0,0,0,0,0.1,0c0.9-0.4,1.7-0.8,2.6-1.2
		C227.2,287.1,227.1,287.2,226.9,287.2z"/>
	<path class="st6" d="M236.1,286.6l14.6-3.6c-4.6,1-8.9,1.7-12,1.9c-0.4,0.1-0.8,0.2-1.2,0.2L236.1,286.6z"/>
	<path class="st6" d="M275.2,276.9c0,0-0.1,0-0.3,0.1c0,0-0.2,0.2-0.7,0.4C274.6,277.3,274.9,277.1,275.2,276.9z"/>
	<path class="st6" d="M293.6,257.4c16.1-14.3,23.2-27.6,26.3-36.4c-1-0.5-2-1.1-2.9-1.8c0,0-18.1,53.3-77.7,65.5
		C245.3,284,267,279.5,293.6,257.4z"/>
	<path class="st6" d="M325.8,223.2c-2.1-0.4-4-1.2-5.8-2.1c-0.3,2.1-2.2,14.6-11.8,29.3C308.8,249.7,319.9,237.8,325.8,223.2z"/>
	<path class="st2" d="M317.3,252.2c-1.2,1.4-2.5,2.8-3.8,4.1c0,0,0,0,0,0c-0.1,0.1-0.6,1-1.6,2.3
		C313.2,257.6,315.1,255.2,317.3,252.2z"/>
	<path class="st2" d="M245.9,276.4c-5.6,3.6-11.9,7.2-19,10.8c0.2,0,0.3-0.1,0.5-0.1C233.3,284.3,239.6,280.9,245.9,276.4z"/>
	<path class="st2" d="M316.9,219.3c-0.9-0.6-1.7-1.2-2.5-1.9c-1.7,4.8-17.8,46.4-68.6,59l-8.4,8.8c0.4-0.1,0.8-0.2,1.2-0.2
		c0.2,0,0.4-0.1,0.5-0.1c0,0,0,0,0.1,0C298.8,272.6,316.9,219.3,316.9,219.3z"/>
	<path class="st2" d="M298.1,207.6c0,0,4.5,4.2,10.1,7.8l0.2-4.1c-2.4-3-4.5-6.2-6.3-9.3C300.8,204.2,299.3,206.5,298.1,207.6z"/>
	<path class="st2" d="M277.3,203c0,0,7.5-1,9.8-6.7c0-0.1,0.1-0.2,0.1-0.3c1.8-4.9,0.8-8.9,0.8-8.9s2.8,1.5,4.2,5.3
		c0.3-3.4-0.1-7.3-2.1-10.7c0.5,2.3,0.4,3.5,0.4,3.5c-3.2-5.5-9-4.8-9-4.8c5.9,4.3,4,11.2,4,11.2c-0.5-4.1-3.9-5.1-3.9-5.1
		c0,1.3-0.1,2.5-0.4,3.6C281.8,194.8,281.1,199.8,277.3,203z"/>
	<path class="st3" d="M219.2,274.5l6.4,0.1c-9.8,4.6-18,6.3-18,6.3c0.3-13-7-33.1-7.4-34.3c3.1,11.3,7,29.2,4.2,40
		c0,0,33-9.7,61-42.3c3-3.5,4.7-6.8,5.7-10c-2.5,3.4-5.5,7.2-9,11.2C244.1,265.7,219.2,274.5,219.2,274.5z"/>
	<path class="st2" d="M196.6,167c6.1,6,16.7,12.4,38.1,13.4l-3.9-2c0,0,19.1,1.5,32.6-1.8c-0.2-0.3-0.4-0.5-0.6-0.7
		c-12.7,1.4-48.6,3.5-64.8-12.7C197.9,163.2,197.4,164.5,196.6,167z"/>
	<path class="st2" d="M195.3,215.9c0.4,1.9,1,3.9,1.5,5.8c0,0,7.4-2.1,18.7-7.4c0,0,0,0,0,0c0,0,0,0,0,0c8-3.8,18-9.3,28.6-16.9
		c-15.1,9.7-44.6,20.8-44.6,20.8L195.3,215.9z"/>
	<path class="st3" d="M253.4,190.3c-0.6,0.4-1.7,1.3-3.6,3C251.2,192.2,252.3,191.2,253.4,190.3z"/>
	<path class="st3" d="M233.8,138.8L233.8,138.8l-0.3,0.2l-0.7,0.4c-3.1,2-12.3,8.9-17.5,21.2c-2.4,5,2.6,8.2,3.2,8.5c0,0,0,0,0,0
		l0.6-0.2C217.6,155.7,233.3,139.3,233.8,138.8z"/>
	<path class="st3" d="M236.6,146.9c-2,2.3-7.9,9.7-10.5,20.6c-0.1,0.6-0.5,3.9,4.1,5.1c0,0,0.1,0,0.1,0c0.6,0.1,1.2,0.2,1.7,0.3
		c0,0,0.1,0,0.1,0c0,0,0,0,0,0c0.1-0.4,0.2-0.7,0.3-1.1v0C229.2,163.8,234.6,151.1,236.6,146.9z"/>
	<path class="st3" d="M243.7,153.7L243.7,153.7c-0.1,0.2-0.6,1-1.1,2.2c-4.2,9.3,0.2,11.8,5.3,10.4
		C241.1,166.3,243.7,153.7,243.7,153.7z"/>
	<path class="st2" d="M258.9,132.5c-3.5-4.5-11.1-7.8-11.1-7.8c22.8-1,35.9,9.1,35.9,9.1c-2.2-0.6-5.7-0.4-5.7-0.4
		c11,5.9,11.2,12.4,11.2,12.4c-3.2-4-8-6.7-8.3-6.9c12.7,12.9,11.9,37.7,11.9,38.4c0,0,0,0,0,0c0.9,1.1,1.5,2.2,2,3.2
		c1.2-5.5,1.7-15-1.2-31.2c0,0,0,0,0,0c0.2,0.5,4.1,8.8,6.5,18.1c0.5,2.1,1,4.2,1.3,6.3c1.6-5.8,2.5-13.4,0.5-21.2
		c-2.7-10.4-10.8-21-29.6-27.9c-28.7-10.5-48.9,4.5-48.9,4.5c11.8-4.2,25,0,25,0s-7.5-0.1-17.5,3
		C248.2,127.4,258.5,132.3,258.9,132.5z"/>
	<path class="st2" d="M335.5,97.5c33.7,0.8,49.9-8.3,49.9-8.3c-30,5.3-54.4-3.5-54.4-3.5c4.2-2.5,6.5-7,7.9-11.2
		c-12.6,7.3-26.1,5.6-26.1,5.6c3,2,13.5,2.9,13.5,2.9c-11.1,4.6-22.7,3.3-41.2-6.1c-18.5-9.4-33.2-5.7-33.2-5.7
		c-2.7,9.9,10.4,21,10.4,21c-23.4-8.3-23.7-22.9-23.5-26.3c0-0.4,0.1-0.7,0.1-0.7v0l5.4-7.8c-18.8,1.6-29.8,8.8-35.8,14.9
		c4-1.5,6.1-1.7,6.1-1.7c-11.9,11-2.7,30.5-2.7,30.5s0.5-0.2,1.5-0.6c-1-9.3,1.4-18.6,1.4-18.6c-0.9,6.9,1.9,12.5,5.5,16.6
		c3.9-0.9,9-1.6,15-1.6c-1.7-4.5-2.5-10.9-0.8-20c0,0,0,0,0,0c0,0,0,0,0,0c0,0,0,0,0,0.1c0,0,0,0.1,0,0.1c0,0,0,0.1,0,0.1
		c0,0,0,0.1,0,0.1c0,0,0,0.1,0.1,0.2c0,0,0,0.1,0.1,0.2c0,0.1,0,0.1,0.1,0.2c0,0.1,0.1,0.1,0.1,0.2c0,0.1,0.1,0.1,0.1,0.2
		c0,0.1,0.1,0.2,0.1,0.2c0,0.1,0.1,0.2,0.1,0.2c0,0.1,0.1,0.2,0.1,0.3c0,0.1,0.1,0.2,0.1,0.2c0,0.1,0.1,0.2,0.2,0.3
		c0,0.1,0.1,0.2,0.1,0.3c0.1,0.1,0.1,0.2,0.2,0.3c0,0.1,0.1,0.2,0.1,0.3c0.1,0.1,0.1,0.3,0.2,0.4c0,0.1,0.1,0.2,0.1,0.2
		c0.1,0.2,0.2,0.3,0.3,0.5c0,0.1,0.1,0.1,0.1,0.2c0.5,0.8,1.1,1.8,1.9,2.8c0,0,0.1,0.1,0.1,0.1c0.2,0.2,0.3,0.4,0.5,0.6
		c0.1,0.1,0.1,0.1,0.2,0.2c0.2,0.2,0.3,0.4,0.5,0.6c0.1,0.1,0.1,0.2,0.2,0.2c0.2,0.2,0.4,0.4,0.5,0.6c0.1,0.1,0.1,0.2,0.2,0.2
		c0.2,0.2,0.4,0.4,0.6,0.7c0.1,0.1,0.1,0.2,0.2,0.2c0.2,0.2,0.4,0.5,0.6,0.7c0.1,0.1,0.1,0.2,0.2,0.2c0.2,0.2,0.4,0.5,0.7,0.7
		c0.1,0.1,0.1,0.1,0.2,0.2c0.2,0.2,0.5,0.5,0.7,0.7c0.1,0.1,0.1,0.1,0.2,0.2c0.3,0.3,0.6,0.5,0.8,0.8c0,0,0.1,0.1,0.1,0.1
		c1.5,1.4,3.3,2.8,5.2,4.1c1.1,0.7,2.2,1.5,3.4,2.2c0,0,0,0,0.1,0c0.4,0.3,0.9,0.5,1.4,0.8c0,0,0.1,0,0.1,0.1c0,0,0,0,0,0
		c0.5,0.3,1.1,0.6,1.6,0.9c0.1,0.1,0.3,0.2,0.4,0.2c0.6,0.3,1.3,0.6,2,1c1.5,0.5,3,1.1,4.5,1.7c1.8,0.8,3.7,1.4,5.5,1.9
		c0.3,0.1,0.6,0.2,1,0.3c0.1,0,0.2,0,0.2,0.1c0.8,0.2,1.7,0.4,2.5,0.6c0.2,0.1,0.5,0.1,0.7,0.1c0.6,0.1,1.2,0.2,1.8,0.4
		c0.3,0.1,0.6,0.1,0.8,0.1c0.6,0.1,1.1,0.2,1.7,0.3c0.3,0,0.6,0.1,0.8,0.1c0.6,0.1,1.2,0.1,1.7,0.2c0.3,0,0.5,0,0.8,0.1
		c0.6,0,1.2,0.1,1.9,0.1c0.2,0,0.4,0,0.6,0c0.8,0,1.5,0,2.3,0.1c0,0,0.1,0,0.1,0c1.7,0,3.3-0.1,4.9-0.2c0.1,0,0.3,0,0.4,0
		c0.7,0,1.3-0.1,1.9-0.2c0.2,0,0.4,0,0.5-0.1c0.6-0.1,1.2-0.1,1.8-0.2c0.2,0,0.4,0,0.5-0.1c0.6-0.1,1.2-0.2,1.7-0.2
		c0.2,0,0.3,0,0.5-0.1c0.6-0.1,1.2-0.2,1.8-0.3c0.1,0,0.2,0,0.3,0c1.4-0.3,2.8-0.6,4.1-0.9c0,0,0,0,0,0c0.6-0.1,1.2-0.3,1.8-0.5
		c0.1,0,0.2-0.1,0.4-0.1c0.5-0.1,0.9-0.3,1.4-0.4c0.1,0,0.1,0,0.2-0.1h0c0.3-0.1,0.5-0.1,0.7-0.2c0.1,0,0.2,0,0.2-0.1
		c0.4-0.1,0.8-0.2,1.2-0.4c0.1,0,0.2-0.1,0.3-0.1c0.4-0.1,0.9-0.3,1.3-0.4c0.1,0,0.3-0.1,0.4-0.1c0.3-0.1,0.5-0.2,0.8-0.3
		c0.2-0.1,0.4-0.1,0.6-0.2c0.2-0.1,0.4-0.1,0.5-0.2c0.2-0.1,0.4-0.1,0.6-0.2c0.2-0.1,0.3-0.1,0.5-0.2c0.2-0.1,0.4-0.1,0.5-0.2
		c0.1-0.1,0.3-0.1,0.4-0.2c0.2-0.1,0.3-0.1,0.5-0.2c0.2-0.1,0.3-0.1,0.4-0.2c0.1,0,0.2-0.1,0.3-0.1c0.2-0.1,0.5-0.2,0.7-0.3
		c0.1,0,0.1-0.1,0.2-0.1c0.2-0.1,0.3-0.1,0.4-0.2c0.1,0,0.1,0,0.1-0.1c0.1-0.1,0.3-0.1,0.4-0.2c0,0,0,0,0.1,0
		c0.1-0.1,0.2-0.1,0.3-0.2c0,0,0,0,0,0c0.2-0.1,0.3-0.2,0.4-0.2c-2.1,3.8-11.2,10.9-11.2,10.9c44.6,12.5,87.6-10.1,87.6-10.1
		c-2.8,0-5.6-0.3-8.1-0.6C355.3,106.3,335.5,97.5,335.5,97.5z"/>
	<path class="st2" d="M316,128.9c0.8,2.2,1.2,4.2,1.4,6c0.2,0,0.3,0.1,0.5,0.1c7.7-0.9,20.1-3.4,29-8c-0.2,0.3-2.9,4.5-10.6,8.2
		c0.3,0,0.5-0.1,0.8-0.1c0,0-3.1,4.9-19.7,5.5c-0.3,2-0.8,3.1-0.8,3.1c7.7,0.1,14.7-0.4,21-1.3c15.2-5.6,26.5-13.3,34.1-19.8
		c-10.6,4.9-18.6,6.3-19.1,6.4c5.4-3.9,8.1-7.7,8.1-7.7c-0.1,0-0.1,0-0.2,0C349.9,127.2,327.4,128.6,316,128.9z"/>
	<path class="st2" d="M209.1,223c17.4-6,26.7-15.5,26.7-15.5c-14.3,8-27.6,13.1-27.6,13.1l-1.1,0.3
		C207.1,220.9,207.4,223.7,209.1,223z"/>
	<path class="st6" d="M274.2,292.3c61.9-33.8,59.8-66,59.8-66s0,0,0,0.1c-1.4,3.1-2.9,6-4.6,8.8c-2.6,4.4-5.4,8.6-8.4,12.5
		c-1.2,1.5-2.4,3-3.6,4.4c0,0,0,0,0,0c-2.2,3-4.1,5.4-5.4,6.5c1-1.4,1.5-2.2,1.6-2.3c-21.4,22.6-60.9,47.8-100.2,51.1
		c-2.7,0.2-5.3,0.4-8,0.4c-12.5,0.1-23.4-2.7-32.6-6.6c0,0,0,0,0,0c-5.2-2.2-9.8-4.8-13.9-7.5c-0.7-0.5-1.4-0.9-2.2-1.5
		c-0.3-0.2-0.6-0.4-0.9-0.6c-0.1-0.1-0.2-0.1-0.2-0.2c0,0,0,0,0,0c0.3,0.4,8,9.6,23.5,15.3c4.9,1.6,10.8,3.1,17.6,3.9
		c0.1,0,0.2,0,0.3,0c0.7,0.1,1.5,0.2,2.3,0.2c7.6,0.6,21.9,0.9,37.7-3.6l0.8,0C248.7,304.4,260.9,299.6,274.2,292.3z"/>
	<path class="st1" d="M140.5,258.6c0,0-12.1-18.3-17.7-41.9c-1.2,1.9-2.4,3.9-3.7,5.8C119.1,222.6,121.3,237.6,140.5,258.6z"/>
	<path class="st2" d="M367.7,203.3c0.3-5.3,0.2-9.9-0.1-13.6c-0.5-6.9-1.6-10.7-1.6-10.7s0,0.8-0.2,2.3c0,0.3,0,0.6-0.1,0.9
		c-0.8,10-4.1,41.3-16,61.7l-0.5-8.9c0,0,0,0.1-0.1,0.1c-0.1,0.1-0.1,0.3-0.2,0.4c-0.7,1.4-1.4,2.8-2.2,4.1c0,0,0,0,0,0
		c-0.6,1.2-1.3,2.3-1.9,3.4c-0.1,0.2-0.2,0.3-0.3,0.5c-0.5,0.9-1,1.7-1.5,2.6c-0.2,0.3-0.3,0.6-0.5,0.9c-0.5,0.8-0.9,1.5-1.4,2.3
		c-0.2,0.2-0.3,0.5-0.5,0.8c-0.6,1-1.2,1.9-1.8,2.8c-21.2,32.1-41,37-46.5,37.8c-0.2,0-0.7,0.1-1.2,0.1
		c22.3-13.5,36.2-32.9,43.9-46.9c0.1-0.3,0.3-0.6,0.5-0.9c3.4-6.3,5.5-11.4,6.6-14.2c6-13.4,13.3-30.4,13.3-30.4
		c-10.3,12.8-16.5,13.1-16.5,13.1c-1.7,8.2-3.8,12.5-3.8,12.5c-0.4,0.8-0.7,1.6-1.1,2.5c0,0,2.1,32.2-59.8,66
		c-13.3,7.3-25.5,12-36.5,15l-0.8,0c0,0-12.8,10-49.3,6c0,0,21,11.3,60.9-0.4c1.1-0.3,2.1-0.6,3.2-1c0,0,0,0,0.1,0l0,0
		c2.5-0.8,5.1-1.8,7.7-3l0,0c0,0-8.9,7.2-19.8,9.8c0,0,31.8,3.8,66.9-20.8l0,0.1c2-1.4,3.9-2.9,5.8-4.4c0,0,0,0,0,0
		c13.3-10.5,23.6-21.8,31.4-33.1l-0.9,14.2C361.5,246.2,366.7,220.7,367.7,203.3z"/>
	<path class="st6" d="M346.7,233.5c0,0,12.7-17.2,13.7-45.7C360.5,187.8,356.7,210.3,346.7,233.5z"/>
	<path class="st6" d="M236.1,286.6l1.4-1.4l8.4-8.8c-6.2,4.4-12.5,7.9-18.5,10.7c-0.9,0.4-1.7,0.8-2.6,1.2
		c-16.5,7.2-29.5,8.7-29.5,8.7c42.8,0.4,74.1-16.7,79-19.5c0.4-0.2,0.7-0.4,0.7-0.4l0,0l-24.3,6L236.1,286.6z"/>
	<path d="M499.6,421.8l-0.8-19.5c-0.5-12.6-2.6-20.9-6.7-26.1l-0.5-0.7l-11.1-11.7c2.8-1.1,5.6-2.2,8.2-3.4l9.8-4.7l-1.3-41.3
		c-1.1-25.4-17.5-29.1-22.7-29.6c-0.9-0.1-1.7-0.1-2.6-0.1c-3.4,0-7,0.6-10.9,1.9c0,0,0,0-0.1,0c-0.7,0.2-1.6,0.5-2.7,1
		c-0.2,0.1-0.3,0.2-0.5,0.2c-1.8,0.8-4.1,1.9-6.4,3c-7.8,3.9-17,9-17.8,9.5c0,0-0.1,0-0.1,0l-13.7,5.6c20.7-81,28-145.6,30.5-177.6
		c0-0.5,0.1-0.9,0.1-1.4l0-0.2l0-0.6l0-0.3c0.3-4,0.6-8,0.8-12c0-0.2,0-0.3,0-0.5l0-0.3V113l0-0.3v-0.2c0-0.1,0-0.1,0-0.2
		c0-0.1,0-0.2,0-0.3v-0.1c0.1-1.2,0.1-1.8,0.1-1.8l0.1-4.9l-3.8-3.2c-0.6-0.5-9.9-8.1-26.8-18.2c5.8-7.3,11.4-17.5,13.4-31.1l0,0
		c0,0,0,0,0,0c0,0,0,0,0,0c-0.4,0.4-0.7,0.7-1.1,1.1l-0.1,0.1c-9.4,8.6-22.3,14-35.2,17.5c-2.4-1.2-4.8-2.4-7.3-3.6
		c-9.4-4.4-20.4-9.1-32.9-13.6C330.6,21.4,289.1,0.6,242.5,0.6c-43.7,0-83,18.4-110.1,47.6c-19,6.1-35,13.1-47.6,19.5
		c-33.6,17.1-51.6,34-52.3,34.7l-3.3,3.1l0.1,4.5c0,0,0,0.6,0.1,1.8v0.1c0,0.1,0,0.2,0,0.3c0,0.1,0,0.1,0,0.2v0.3l0,0.4l0,0.1
		c0,0.4,0,0.8,0.1,1.2l0,0.2c0,0.4,0,0.8,0.1,1.2l0,0.1l0,0.2v0.1c0.2,3.8,0.4,7.3,0.7,10.6l0,0.2c0,0.4,0.1,0.9,0.1,1.3
		c2.5,31.2,9.4,92.9,28.7,170.4l-1.4-0.7c-0.2-0.1-0.5-0.2-0.7-0.4l-0.9-0.5v0c-15.4-8.5-54.2-38.5-55.5-39.5c0,0,0,0,0,0l0.2,36
		c0.1,21-0.2,48.1-0.4,74.3c-0.3,34.7-0.7,70.6-0.2,95.5l0.4,22l21-6.5c3-0.9,8.3-2,12.9-2.9c3.2-0.7,6.3-1.3,9-1.9l9.8-2.3l4.8-0.9
		c6.3-1.1,12.8-2.3,19.2-3.3l4.7-0.8l9.6-1.2c5.1-0.6,9.9-1.2,14.5-1.7l12.4-1.3l11.7-0.9c7.8-0.6,16.1-1.2,24.7-1.7l6.3-0.4
		l1.4-0.1l86.6,89.8l75.8-93.1c5.9,0,11.1,0.1,15.8,0.1c0.3,0,0.5,0,0.8,0c1.9,0,3.6,0.1,5.4,0.1l15,0.2c20,0.9,43.1,4.9,43.2,4.9
		l15.4,3.1l3.6,0.8c2.2,2.7,0.9-1.5,4.3,1c3.3,2.7,16.7,12.5,35.4,12.5c1.1,0,2.2,0,3.3-0.1c1.3,0,2.5-0.1,3.7-0.3l0.4,0l1.2-0.3
		c0.2,0,0.5-0.1,0.8-0.1c2.7-0.3,5.3-0.6,7.9-1.7c1.1-0.5,2.3-1,3.4-1.6c6-3.4,15.6-11.8,15.2-30.9
		C500,441.8,499.6,421.8,499.6,421.8z M350.8,326.1l-9.9,1.6c-6.1,1-11.3,1.9-17.5,2.6l-4.5,0.5l-13.6,1.2c-7.4,0.7-14.8,1.2-22,1.6
		l-16.3,0.9l-0.6-0.1c3.3-0.9,6.6-2,9.8-3.1c3.9-1.4,7.8-3.1,11.5-4.9c0.8-0.4,1.5-0.7,2.2-1.1c2.4-1.2,4.7-2.5,7-3.9l0.2-0.5
		c2.1-1,4.1-1.9,6.2-3c0.2-0.1,0.4-0.2,0.6-0.3c0.3-0.2,0.6-0.3,0.9-0.5c1.4-0.7,2.7-1.5,4.1-2.3c2-1.2,3.9-2.4,5.8-3.6
		c19.2-12.5,35-29.6,46-49.8c0,0,0,0,0,0c4.7-8.6,8.4-17.7,11.2-27.3c3-10.4,4.8-21.2,5.3-32.4c8.4-17.9,13.1-37.7,13.1-58.5
		c0-5-0.3-10-0.8-14.9c4.9-4.8,7.8-9.1,9.4-11.6c3.4,2.3,6.8,4.6,10,7c-0.1,15.3-1.9,34.5-5.5,57c-1,6-2,12.3-3.2,18.7
		c-7.3,39.6-16.4,80.2-23.8,106.9c-0.3,1-0.5,2-0.8,2.9l-3.4,12.3l0.3,0c-4.6,1.1-9.3,2.1-14.1,3.1L350.8,326.1z M122.1,322.1
		c-4.9-1.2-9.7-2.4-14.3-3.8l-1.9-6.7c-0.4-1.5-0.8-3-1.3-4.5l-1.1-3.9c-7.3-26.4-17.3-65.5-24.4-104c-1.2-6.4-2.3-12.7-3.2-18.7
		c-3.5-22.1-5.4-40.9-5.5-56.1c4.8-3.8,14.8-11,29.5-19c-3.4,11.9-5.2,24.5-5.2,37.5c0,15.2,2.5,29.9,7.1,43.7
		c-0.2,2.9-0.3,5.9-0.3,8.9c0,1.6,0,3.2,0.1,4.8c0,0.6,0.1,1.2,0.1,1.7c0,1,0.1,2,0.2,3c0,0.7,0.1,1.4,0.2,2.2
		c0.1,0.8,0.1,1.7,0.2,2.5c0.1,0.8,0.2,1.6,0.3,2.4c0.1,0.7,0.2,1.5,0.3,2.2c0.1,0.8,0.2,1.7,0.4,2.5c0.1,0.7,0.2,1.4,0.3,2
		c0.2,0.9,0.3,1.8,0.5,2.6c0.1,0.6,0.2,1.2,0.4,1.9c0.2,0.9,0.4,1.8,0.6,2.7c0.1,0.6,0.3,1.1,0.4,1.7c0.2,0.9,0.5,1.9,0.7,2.8
		c0.1,0.5,0.3,1,0.4,1.5c0.2,0.6,0.3,1.3,0.5,1.9c0.1,0.3,0.2,0.7,0.3,1c0.1,0.4,0.3,0.8,0.4,1.2c0.3,1,0.6,2,1,3
		c0.2,0.5,0.3,0.9,0.5,1.4c0.3,0.9,0.7,1.9,1,2.8c0.2,0.5,0.4,1,0.6,1.5c0.3,0.9,0.7,1.8,1,2.6c0.2,0.5,0.4,1,0.6,1.5
		c0.4,0.8,0.7,1.7,1.1,2.5c0.2,0.5,0.5,1,0.7,1.6c0.4,0.8,0.7,1.6,1.1,2.4c0.3,0.5,0.5,1.1,0.8,1.6c0.4,0.8,0.8,1.6,1.2,2.3
		c0.3,0.5,0.6,1.1,0.9,1.6c0.4,0.7,0.8,1.5,1.2,2.2c0.3,0.6,0.6,1.1,1,1.6c0.4,0.7,0.8,1.4,1.3,2.1c0.4,0.6,0.8,1.2,1.1,1.8
		c0.4,0.6,0.8,1.3,1.2,1.9c0.7,1.1,1.5,2.2,2.2,3.3c0.1,0.1,0.1,0.2,0.2,0.3c0.8,1.2,1.7,2.4,2.6,3.6c0.1,0.2,0.3,0.4,0.4,0.5
		c0.7,1,1.5,2,2.3,2.9c0.2,0.2,0.3,0.4,0.5,0.6c0.8,1,1.6,1.9,2.4,2.8c0.1,0.2,0.3,0.3,0.4,0.5c0.8,1,1.7,1.9,2.5,2.9
		c0.1,0.1,0.2,0.2,0.3,0.3c0.9,1,1.8,2,2.8,2.9c0,0,0.1,0.1,0.1,0.1c0.5,0.5,0.9,0.9,1.4,1.4c-0.1,0.1-0.1,0.3-0.2,0.4
		c6.8,7.5,15.6,16.5,23.6,22.2c0,0,0,0,0,0c5.4,3.8,11,7.2,16.8,10.1c0.1,0.1,0.1,0.1,0.2,0.1c2.7,1.4,5.5,2.6,8.4,3.8
		c0,0,0,0,0.1,0c3.2,1.3,6.4,2.4,9.7,3.5l-6.4-0.5c-7.2-0.5-14.6-1.3-21.8-2.1l-7.6-0.9l-7.6-1.1c-5.3-0.8-10.2-1.6-14.9-2.4
		l-11.1-2v0L122.1,322.1z M242.5,8.7c40.7,0,77.4,16.8,102.9,43.7c-24.8,21.4-45,12.7-46.2,12.2c0,0,0,0-0.1,0
		c-0.7-0.3-1.5-0.6-2.2-0.9l3.7-0.2l11.2-0.6l-7.2-2.3l-41.3-13.1c-9.9-3.2-19.2-4.7-27.7-4.7c-17.2,0-28.5,6.5-35.4,13c0,0,0,0,0,0
		c0,0,0,0,0,0c-0.2,0.2-0.3,0.4-0.5,0.5c-0.2,0.2-0.4,0.5-0.6,0.7c-0.1,0.1-0.2,0.2-0.3,0.4c-0.5,0.6-1,1.2-1.5,1.9
		c-0.1,0.1-0.2,0.3-0.4,0.4c0,0-0.1,0.1-0.1,0.1c0,0-0.1,0.1-0.1,0.1c-1.5,0.7-3.1,1.3-4.6,2c-1,0.4-1.9,0.9-2.9,1.4
		c-1.9,0.9-3.7,1.9-5.6,2.9h0c-13.9,7.6-27.2,17.4-38.8,29.1c-15.1,14.2-27,31.8-34.4,51.5c-2.3,6.1-4.2,12.4-5.7,18.9
		c-1.3-7.3-2-14.9-2-22.6C102.9,69,165.6,8.7,242.5,8.7z M363.8,76.4c-5.1,0.3-10.4,0.5-15.9,0.5c2.4-12.4,0.4-19.8-1-23.1
		C353.3,60.8,358.9,68.3,363.8,76.4z M213,110.2c0,0,62.9-17.5,84.3,21.8c-0.6-0.6-9.7-10.6-21-15.2l3,3.9c0,0,0,0,0,0
		c-0.9-0.5-17.4-10-51-7.4c0,0,6.1,0.9,10.5,3.3c-6.2,0.9-12.9,2.6-20.1,5.1L213,110.2z M360.5,121.3c0.1,0,0.1,0,0.2,0
		c0,0-2.7,3.8-8.1,7.7c0.5-0.1,8.5-1.5,19.1-6.4c6.1-2.8,13.1-6.7,19.9-12.2c0,0-12.5,25.8-54,32c-6.3,0.9-13.3,1.4-21,1.3
		c0,0,0.5-1.1,0.8-3.1c16.6-0.6,19.7-5.5,19.7-5.5c-0.3,0-0.5,0.1-0.8,0.1c-8.2,1.1-14.1,0.7-18.4-0.2c-0.2,0-0.3-0.1-0.5-0.1
		c-0.2-1.8-0.7-3.8-1.4-6C327.4,128.6,349.9,127.2,360.5,121.3z M312.5,293.6c0.4,0.3,0.7,0.7,1,1.1
		C313.2,294.3,312.9,293.9,312.5,293.6c-1.9,1.5-3.8,3-5.8,4.4l0-0.1c-35.1,24.6-66.9,20.8-66.9,20.8c10.8-2.6,19.8-9.8,19.8-9.8
		l0,0c-2.6,1.2-5.2,2.2-7.7,3l0,0c0,0,0,0-0.1,0c-1.1,0.4-2.2,0.7-3.2,1c-39.9,11.8-60.9,0.4-60.9,0.4c36.5,3.9,49.3-6,49.3-6
		c-15.8,4.5-30.1,4.2-37.7,3.6c-0.8-0.1-1.5-0.1-2.3-0.2c-0.1,0-0.2,0-0.3,0c-6.8-0.8-12.7-2.3-17.6-3.9
		c-15.5-5.6-23.2-14.9-23.5-15.3c0,0,0,0,0,0c0.1,0.1,0.2,0.1,0.2,0.2c0.3,0.2,0.6,0.4,0.9,0.6c0.8,0.5,1.5,1,2.2,1.5
		c4,2.7,8.7,5.3,13.9,7.5c0,0,0,0,0,0c9.2,3.9,20.1,6.7,32.6,6.6c2.7,0,5.3-0.1,8-0.4c39.3-3.3,78.9-28.5,100.2-51.1c0,0,0,0,0,0
		c1.3-1.3,2.5-2.7,3.8-4.1c0,0,0,0,0,0c1.2-1.4,2.5-2.9,3.6-4.4c3-3.9,5.9-8.1,8.4-12.5c1.6-2.8,3.2-5.8,4.6-8.8c0-0.1,0-0.1,0-0.1
		c0.4-0.8,0.7-1.6,1.1-2.5c0,0,2.1-4.3,3.8-12.5c0,0,6.3-0.3,16.5-13.1c0,0-7.3,17-13.3,30.4c-1.1,2.8-3.2,7.9-6.6,14.2
		c-0.2,0.4-0.4,0.7-0.5,0.9c-7.7,14-21.6,33.4-43.9,46.9c0.5,0,1,0,1.2-0.1c5.5-0.8,25.3-5.7,46.5-37.8c0.6-0.9,1.2-1.9,1.8-2.8
		c0.2-0.2,0.3-0.5,0.5-0.8c0.5-0.7,0.9-1.5,1.4-2.3c0.2-0.3,0.3-0.6,0.5-0.9c0.5-0.8,1-1.7,1.5-2.6c0.1-0.2,0.2-0.3,0.3-0.5
		c0.6-1.1,1.3-2.2,1.9-3.4c0,0,0,0,0,0c0.7-1.3,1.4-2.7,2.2-4.1c0.1-0.1,0.1-0.3,0.2-0.4c0,0,0-0.1,0.1-0.1l0.5,8.9
		c11.9-20.4,15.2-51.7,16-61.7c0-0.3,0-0.6,0.1-0.9c0.1-1.5,0.2-2.3,0.2-2.3s1,3.9,1.6,10.7c0.3,3.7,0.4,8.3,0.1,13.6
		c-0.9,17.5-6.2,42.9-24.6,71.3l0.9-14.2C336.1,271.7,325.9,283.1,312.5,293.6z M314.9,298.7c0-0.3,0-0.7-0.1-1
		C314.9,298.1,314.9,298.4,314.9,298.7C314.9,298.7,314.9,298.7,314.9,298.7z M314.8,297.6c-0.1-0.7-0.4-1.3-0.7-1.9
		C314.4,296.3,314.7,296.9,314.8,297.6z M314.1,295.6c-0.2-0.3-0.3-0.6-0.5-0.9C313.8,295,313.9,295.3,314.1,295.6z M230.6,397.7
		c-0.1,5.6-0.1,11-0.2,16c-0.1,5.6-0.1,10.5-0.1,13.9c0,0,0,0,0,0c0,0.8,0,1.6,0,2.2c0.1,3.2,2.5,4.8,7.2,5c0.1,0,0.3,0,0.4,0
		c0.3,0,0.7,0,1,0c0.3,0,0.5,0,0.7,0h0c2.3-0.1,4.1-0.5,5.4-1.2c1.7-0.9,2.5-2.2,2.4-4c0-0.2,0-0.6,0-1.1h0c0,0,0-0.1,0-0.1
		c0-0.1,0-0.2,0-0.4c0-0.1,0-0.3,0-0.5c0-0.2,0-0.5,0-0.7c0-0.2,0-0.4,0-0.6c0-0.2,0-0.4,0-0.5c0-0.2,0-0.4,0-0.6c0-0.2,0-0.3,0-0.5
		c0-0.4,0-0.7,0-1.1c0-0.1,0-0.3,0-0.5c0-0.3,0-0.7,0-1c0-0.1,0-0.2,0-0.4c0.1-2.7,0.2-5.8,0.3-8.9c0.1-2.3,0.2-4.7,0.2-6.8
		c0.1-4.4,0.3-8,0.2-9.2c-2.4,0-4.8,0-7.2,0c0-1,0-2.1-0.1-3.1v0c0-0.8,0-1.6,0-2.4c9.8,0,19.6-0.1,29.3-0.2
		c0.2,8.9-0.8,39.6-0.6,48.5c-2.6-0.1-5.2-0.1-7.8-0.1c-0.7-1.4-1.4-2.8-2.2-4.1c-1.8,0-3.7,0-5.5,0c-0.3,0.3-0.6,0.6-0.9,0.8
		c-1.6,1.4-4.4,2.5-8.5,3.4c-2.3,0.5-4.7,0.8-7.2,1h0c-1.2,0.1-2.5,0.2-3.7,0.2c-1.9,0-3.6,0.1-5.3,0c-0.5,0-1,0-1.5-0.1
		c-2.8-0.1-5.3-0.3-7.5-0.7c-0.2,0-0.4-0.1-0.7-0.1c-0.1,0-0.1,0-0.2,0l0,0c-1.4-0.2-2.7-0.6-3.9-0.9c-4.5-1.4-6.7-3.6-6.8-6.6
		c-0.2-13.2,0.7-59.1,0.7-72.4c0-3.7,3.9-6.1,11.8-7.4c5-0.9,11.1-1.2,18.5-1.1c7.4,0.1,13.6,0.5,18.7,1.4c7.9,1.4,11.9,3.8,12,7.4
		c0.1,3.2,0.2,6.4,0.3,9.6c-3.5,0.1-7,0.1-10.5,0.2c-3.9,0.1-7.7,0.1-11.6,0.1c0-2.6-0.1-5.1-0.1-7.7c-0.1-3.4-3-5.1-8.7-5.1
		c-0.4,0-0.8,0-1.2,0c-4.9,0.2-7.3,1.8-7.2,5C231,368.3,230.8,383.2,230.6,397.7z M192.5,441.8c-3.7,0.1-7.4,0.3-11,0.4
		c-3.9,0.2-7.8,0.3-11.6,0.5c-0.4-21.6,0.5-74.4,0.8-95.4c7.4,0.8,14.9,1.6,22.4,2.1C192.9,369.4,192,421.5,192.5,441.8z
		 M220.7,136.5c1.2-0.7,2.5-1.4,3.9-2c2.1-0.9,4.2-1.6,6.2-2.2c0,0,0.1,0,0.1,0c10-3.1,17.5-3,17.5-3s-13.2-4.2-25,0
		c0,0,20.2-15.1,48.9-4.5c18.8,6.9,26.9,17.5,29.6,27.9c2,7.7,1.1,15.3-0.5,21.2c-0.3-2.1-0.8-4.2-1.3-6.3
		c-2.3-9.4-6.2-17.6-6.5-18.1c0,0,0,0,0,0c2.9,16.2,2.4,25.7,1.2,31.2c-0.5-1-1.1-2.1-2-3.2c0,0,0,0,0,0c-3.7-4.7-11.7-9.3-28.4-7
		c-2.7,0.4-5.6,1-8.8,1.7c-2.8,0.7-5.6,1.2-8.3,1.4c4.2-1.3,7.8-3.4,10.5-5.2c3.3-2.3,5.4-4.2,5.4-4.2l-0.1,0
		c6.2-5.9,13.1-7.2,13.1-7.2l0,0c0,0-0.1,0-0.1,0c-0.3-0.1-1.4-0.5-3.4-0.4h-0.1c-2.1,0.1-5.2,0.6-9.5,2.4c-0.1,0-0.2,0.1-0.2,0.1
		c-2.7,1.2-4.9,2.4-6.8,3.5l-5.2,2.8c0,0,0,0,0,0c-1,0.5-2,0.9-3,1.2c0,0,0,0,0,0c-5.2,1.4-9.5-1.1-5.3-10.4c0.6-1.2,1-2,1.1-2.2
		l0,0c0.1-0.2,0.1-0.5-0.1-0.7c-0.2-0.2-0.5-0.1-0.7,0.1c-2.1,2.3-3.9,4.6-5.3,6.9l0,0v0c-2.6,4.1-4.2,8.2-5.1,11.9v0
		c-0.1,0.4-0.2,0.7-0.3,1.1c0,0,0,0,0,0c0,0-0.1,0-0.1,0c-0.6-0.1-1.2-0.2-1.7-0.3c0,0-0.1,0-0.1,0c-4.6-1.2-4.2-4.6-4.1-5.1
		c2.6-10.9,8.5-18.3,10.5-20.6c0,0,0,0,0,0c0.4-0.5,0.7-0.7,0.7-0.7c0.2-0.2,0.2-0.5,0-0.7c-0.2-0.2-0.5-0.3-0.7-0.1
		c-11.1,7.5-15.7,16.6-17.5,23.7l-0.6,0.2c0,0,0,0,0,0c-0.5-0.3-5.5-3.5-3.2-8.5c5.3-12.2,14.5-19.1,17.5-21.2l0.7-0.4l0.3-0.2l0,0
		c0,0,0,0,0,0c0.2-0.1,0.3-0.4,0.2-0.7c-0.1-0.2-0.4-0.4-0.6-0.3c-18.2,6.2-24.4,19-26.5,25.5c-3.2-2-4.9-3.5-4.9-3.5
		s3.1-14.1,18.1-23C220.7,137.3,220.9,137.1,220.7,136.5z M311.6,153.2l4.8-0.1c0.9,0,1.7,0,2.5,0h0.4c0.4,0,0.8,0,1.2,0
		c1.8,0,3.5-0.1,5.1-0.1c1.7-0.1,3.4-0.2,5-0.3c8.1-0.7,15.3-2,21.7-3.8c3.2,8.4,5.4,17.1,6.7,26.3c-0.2,7-3.2,16.4-15.3,24.4
		c-22.9,15.3-37.3-9.4-37.3-9.4l3.8-13.8c1.1-3.9,2.1-9.1,2-15C312.4,158.7,312.2,156,311.6,153.2z M382.2,143
		c0,13.1-2,25.8-5.6,37.7c-1.1-10.4-3.3-20.4-6.6-30c-0.8-2.5-1.8-5-2.8-7.4c5.8-2.7,10.7-5.7,14.8-8.8
		C382.1,137.4,382.2,140.2,382.2,143z M346.7,233.5c10-23.2,13.7-45.7,13.7-45.7C359.5,216.4,346.7,233.5,346.7,233.5z M239.2,284.8
		C239.2,284.8,239.2,284.8,239.2,284.8c-0.2,0.1-0.4,0.1-0.6,0.1c3.1-0.2,7.5-1,12-1.9l24.3-6l0,0c0.1,0,0.2-0.1,0.3-0.1
		c-0.3,0.2-0.6,0.3-0.9,0.5c-4.9,2.8-36.2,19.9-79,19.5c0,0,13-1.5,29.5-8.7c0,0,0,0-0.1,0c0.7-0.4,1.4-0.7,2.1-1.1
		c7-3.5,13.3-7.1,19-10.8c50.7-12.6,66.8-54.2,68.6-59c0.8,0.7,1.6,1.3,2.5,1.9c1,0.6,1.9,1.2,2.9,1.8c-3.1,8.7-10.2,22.1-26.3,36.4
		C267,279.5,245.3,284,239.2,284.8z M112.1,184.6c0.4-2.7,1.4-4.9,3-5.8c4.7-2.3,10.1-4.6,16-6.6c-0.2,1.5-0.4,3.1-0.6,4.6
		c-0.3,3-0.5,5.9-0.6,8.9c-0.1,2.6,0,5.2,0.1,7.8c-0.2,0.1-0.4,0.2-0.6,0.3c-3.9,2.1-7.8,5.3-11.6,9.8c-1.6,1.8-3,3.7-4.2,5.7
		c0,0-0.1,0.1-0.1,0.1c-1.1,1.6-1.6,0.1-1.9-3.1C111.1,199.2,111.2,191.9,112.1,184.6z M262.7,176c0.3,0.2,0.5,0.4,0.6,0.7
		c0.9,1.5-0.2,3.6-0.2,3.6s-0.9,2.5-9.7,10c0,0,0,0,0,0c-1.1,0.9-2.3,1.9-3.6,3c-1.9,1.5-3.8,2.9-5.7,4.2
		c-10.6,7.6-20.6,13.1-28.6,16.9c0,0,0,0,0,0c0,0,0,0,0,0c-11.3,5.4-18.7,7.4-18.7,7.4c-0.6-2-1.1-3.9-1.5-5.8
		c-4.5-19.6-2.2-35.6,0.1-44.6c0.4-1.5,0.8-2.8,1.1-3.9c0-0.1,0.1-0.3,0.1-0.4c0.8-2.4,1.3-3.7,1.3-3.7
		C214.1,179.5,250,177.3,262.7,176z M281.3,190.2c0.3-1.1,0.4-2.3,0.4-3.6c0,0,3.4,1,3.9,5.1c0,0,1.9-6.9-4-11.2c0,0,5.7-0.7,9,4.8
		c0,0,0.1-1.1-0.4-3.5c-0.2-0.8-0.4-1.8-0.7-2.9c7.9,7.4,3.5,18,3.5,18c0-1.7-0.3-3.2-0.7-4.4c-1.4-3.8-4.2-5.3-4.2-5.3
		s0.9,4-0.8,8.9c0,0.1-0.1,0.2-0.1,0.3c-1.3,3.4-4,7.3-9.2,10.6c-10.2,6.4-3.4,15.7-6.9,27.4c-1,3.2-2.7,6.5-5.7,10
		c-28,32.6-61,42.3-61,42.3c2.9-10.8-1.1-28.7-4.2-40c0,0,0-0.1,0-0.1c-1.7-6.2-3.2-10.4-3.2-10.4l1.1-4.7c0,0,48.6-17.8,62.3-37.7
		c4.8-6.6,7-11.7,7.9-14.8c6.5-2.9,13.1,7,4.6,22.4C272.8,201.3,279.6,197.3,281.3,190.2z M115.4,228.1c-0.8-1.9-0.9-4.3,0.1-6.8
		c1.9-4.2,4.3-8.2,7.3-11.8c2.6-3.1,5.3-5.4,8.1-7.2c2.6,21.2,11.3,42.9,25.8,64.4c3.9,5.8,8.9,12.5,13.9,18.7
		C138.1,271.2,120.3,238.3,115.4,228.1z M137.5,199.4c1.2-0.3,2.4-0.5,3.7-0.5c13.4-0.8,28.1,11.3,47.4,31.9l-0.7,3.2l-0.6,2.6
		l0.9,2.6c0,0,1.4,4,3,9.8l0.2,0.8c1.1,4.1,2,7.9,2.7,11.5c0,0,0,0.1,0,0.1c0.4,1.6,3.8,16.1,3.3,30.4c-4.9-0.3-9.5-1-13.9-2.1
		C163.6,266.2,141.5,234.8,137.5,199.4z M207.1,220.9l1.1-0.3c0,0,13.2-5.1,27.6-13.1c0,0-9.3,9.5-26.7,15.5
		C207.4,223.7,207.1,220.9,207.1,220.9z M186.3,169c-1,4.1-2,9.1-2.5,14.9c-0.2,1.7-0.3,3.4-0.3,5.2c-0.1,2.8-0.1,5.8,0,8.9
		c0.1,3.3,0.4,6.7,0.9,10.2c0.4,2.9,0.9,5.9,1.6,9c-15.1-15.5-29.7-27.2-44.3-26.7c-1.6,0-3.2,0.2-4.7,0.6c-0.1-2.3-0.1-4.6,0-7
		c0.1-2.8,0.3-5.6,0.7-8.4c0.2-1.9,0.5-3.7,0.9-5.6c2.2-0.6,4.4-1.2,6.7-1.7c0,0,0,0,0,0c12.2-2.7,26.2-4,41.8-2.5
		C186.8,166.8,186.5,167.9,186.3,169z M319.9,221.1c1.8,0.9,3.8,1.7,5.8,2.1c-5.9,14.5-17,26.5-17.7,27.2
		C317.8,235.7,319.7,223.3,319.9,221.1z M308.4,211.2l-0.2,4.1l-0.3,7.3l-6.8-4.4c0,0-2.7,19-23.8,31.4
		c16.6-19.6,17.9-35.2,17.9-35.2l-6-5.3c0,0,8.2-3.7,8.9-15.1c1,2.3,2.4,5.1,4,8C303.8,205,305.9,208.2,308.4,211.2z M210.3,126.3
		c0.2,0.2,0.3,0.4,0.5,0.6c0,0-0.3,0.2-0.8,0.6c-2.6,2-10.6,9.2-17.1,22.7c-1.1,2.3-2.1,4.8-3.1,7.4c-15.5-1.6-29.6-0.6-41.9,1.7
		c-2.5,0.5-4.9,1-7.3,1.6c0.2-0.6,0.3-1.1,0.5-1.7c0.5-1.7,1-3.4,1.6-5.1c1.2-3.4,2.5-6.7,3.9-9.8c2.3-0.3,4.6-0.8,7-1.6
		c6.3-2,13-5.4,20.1-8.9c10-5,20.7-10.5,32-13.2C207.2,122.5,208.7,124.4,210.3,126.3z M138.7,145.5c-1.4,3.4-2.7,6.8-3.8,10.4
		c-0.1,0.4-0.3,0.8-0.4,1.2c-0.6,2-1.1,4-1.6,6c-5.9,1.8-11.3,3.9-16.1,6.1c0,0-0.1,0-0.1,0c-1.6,0.7-2,0.2-1-3.7
		c2.3-8.4,5.4-16.5,9.2-24.3c1.4-2.7,2.3-4.1,3.3-3.2c0,0,0,0,0.1,0c3,3,6.6,5.2,10.9,6C139.1,144.6,138.9,145.1,138.7,145.5z
		 M242.3,483.6c-1.3-2.6-2.6-3.7-3.7-3.7c-0.8,0-1.5,0.5-2,1.5c-0.8,1.3-1.7,2.3-2.8,2.3c-0.7,0-1.6-0.4-2.5-1.4
		c-2.3-2.5-2.1-4.2-2.1-4.2l-6.2-6.2H236v-19.6h9.7v8.1c0,3.6,3.4,5.4,7.4,5.4c1.3,0,2.7-0.2,4.1-0.6c0.7-0.2,1.3-0.3,1.8-0.3
		c4.1,0,5.1,4.9,6.2,11.1c1.2,7-3.5,3.1-4.7,6.2c-1.2,3.1-1.5,1-4.6,4.4c-3.1,3.4-1.3,9.1-1.3,9.1c-0.5,0.1-1.1,0.2-1.7,0.2
		c-2.9,0-5.8-1.7-6-4.3C246.6,488.3,244.5,488.1,242.3,483.6z M171.8,126.2c-4.5,2.3-8.8,4.4-12.7,6.1c-2.7,1.2-5.3,2.1-7.8,2.8
		c0.3-0.6,0.7-1.2,1-1.8c10.6-17.7,24.6-30.5,38.6-39.8c1.9,6.7,5.4,13.4,9.8,20C190.4,116.9,180.6,121.8,171.8,126.2z M189.2,82.5
		c0,0.3,0,0.6,0,0.9c0,0.1,0,0.2,0,0.2c0,0.3,0,0.6,0,0.9v0c0,0.1,0,0.1,0,0.2c0,0.1,0,0.3,0,0.4c0,0.1,0,0.2,0,0.3
		c0,0.1,0,0.3,0,0.4c0,0.1,0,0.1,0,0.2c-19.9,12.9-35.9,29.9-46.4,50.2c-4.3-0.4-7.8-2.6-10.6-5.7c-0.2-0.2-0.5-1.1,0.3-2.9
		c7.1-11,15.6-21,25.4-29.8c6-5.4,12.4-10.3,18.9-14.5c0,0,0,0,0,0c1.7-1.1,3.5-2.2,5.3-3.3v0c1.5-0.9,3.1-1.8,4.6-2.6
		c0.9-0.5,1.9-1,2.8-1.5c0,0.1-0.1,0.3-0.1,0.4c0,0.2-0.1,0.4-0.1,0.6c0,0.3-0.1,0.5-0.1,0.8c0,0.3-0.1,0.5-0.1,0.8c0,0,0,0,0,0
		c0,0.1,0,0.1,0,0.2c0,0.5-0.1,1-0.1,1.5v0.1c0,0.2,0,0.4,0,0.7c0,0.1,0,0.3,0,0.4c0,0.2,0,0.3,0,0.5
		C189.2,82.2,189.2,82.3,189.2,82.5z M441.2,111.3c0,0.2,0,0.4,0,0.6c0,0.1,0,0.3,0,0.4c0,0.2,0,0.3,0,0.5c0,0.2,0,0.4,0,0.6
		c-0.2,4-0.4,7.8-0.8,11.6c0,0.3-0.1,0.6-0.1,1c-3.6,40.7-14.3,71.8-14.3,71.8l-1.3,3.7c4-31.7,7.4-68.5,4.9-86.5
		c0,0-0.2,1.3-0.5,3.7c-2.3,18.1-12.9,97.8-25.8,140.9c0,0.1,0,0.2-0.1,0.2l0,0.1l0,0c-5,15.8-11,32.2-18.2,48.8
		c7.2-26,17.8-66.9,25.2-107.3c1.2-6.3,2.3-12.7,3.3-18.9c3.6-22.4,5.8-43.9,5.6-61.8v-0.7l0.9-0.4c-0.5-0.4-1.1-0.9-1.2-0.9
		c-0.2-0.2-0.4-0.3-0.6-0.5c-4.9-3.8-9.9-7.3-14.9-10.6c1.5-4.8,1.8-9.4,1.8-9.4l0.1,0c0,0,0,0,0.1,0c0.1,0,0.1-0.1,0.2-0.1
		c0,0,0,0,0.1,0c0,0,0,0,0,0c0,0,0,0,0,0c0,0,0,0,0,0c0.1-0.1,0.3-0.2,0.4-0.3c0,0,0.1-0.1,0.2-0.1c0,0,0,0,0.1,0
		c0.1,0,0.1-0.1,0.2-0.1c0,0,0,0,0,0c0.1,0,0.1-0.1,0.2-0.1c0.1-0.1,0.2-0.1,0.3-0.2c0.1-0.1,0.2-0.1,0.3-0.2
		c0.2-0.1,0.4-0.3,0.6-0.4c0.1-0.1,0.2-0.1,0.2-0.2c0.1-0.1,0.3-0.2,0.4-0.3c0,0,0,0,0.1,0c0.1-0.1,0.2-0.2,0.4-0.3
		c0.1-0.1,0.3-0.2,0.4-0.3c1.3-1,2.9-2.3,4.6-3.8c17.8,10.5,27.5,18.5,27.5,18.5S441.2,110.3,441.2,111.3z M413.4,74.7
		c-0.3,0.6-10.2,21-36,22.4c0,0,5.1,1.6,11.4,2.5c2.6,0.4,5.4,0.6,8.1,0.6c0,0-43,22.6-87.6,10.1c0,0,9.1-7.1,11.2-10.9
		c0,0-0.2,0.1-0.4,0.2c0,0,0,0,0,0c-0.1,0-0.2,0.1-0.3,0.2c0,0,0,0-0.1,0c-0.1,0.1-0.2,0.1-0.4,0.2c0,0-0.1,0-0.1,0.1
		c-0.1,0.1-0.3,0.1-0.4,0.2c-0.1,0-0.1,0.1-0.2,0.1c-0.2,0.1-0.4,0.2-0.7,0.3c-0.1,0-0.2,0.1-0.3,0.1c-0.1,0.1-0.3,0.1-0.4,0.2
		c-0.1,0.1-0.3,0.1-0.5,0.2c-0.1,0.1-0.3,0.1-0.4,0.2c-0.2,0.1-0.4,0.1-0.5,0.2c-0.1,0.1-0.3,0.1-0.5,0.2c-0.2,0.1-0.4,0.1-0.6,0.2
		c-0.2,0.1-0.3,0.1-0.5,0.2c-0.2,0.1-0.4,0.1-0.6,0.2c-0.3,0.1-0.5,0.2-0.8,0.3c-0.1,0-0.3,0.1-0.4,0.1c-0.4,0.1-0.8,0.3-1.3,0.4
		c-0.1,0-0.2,0.1-0.3,0.1c-0.4,0.1-0.8,0.2-1.2,0.4c-0.1,0-0.2,0-0.2,0.1c-0.2,0.1-0.5,0.1-0.7,0.2h0c-0.1,0-0.1,0-0.2,0.1
		c-0.5,0.1-0.9,0.3-1.4,0.4c-0.1,0-0.2,0.1-0.4,0.1c-0.6,0.2-1.2,0.3-1.8,0.5c0,0,0,0,0,0c-1.3,0.3-2.7,0.6-4.1,0.9
		c-0.1,0-0.2,0-0.3,0c-0.6,0.1-1.2,0.2-1.8,0.3c-0.2,0-0.3,0.1-0.5,0.1c-0.6,0.1-1.1,0.2-1.7,0.2c-0.2,0-0.4,0-0.5,0.1
		c-0.6,0.1-1.2,0.1-1.8,0.2c-0.2,0-0.4,0-0.5,0.1c-0.6,0.1-1.3,0.1-1.9,0.2c-0.1,0-0.3,0-0.4,0c-1.6,0.1-3.2,0.2-4.9,0.2
		c0,0-0.1,0-0.1,0c-0.8,0-1.5,0-2.3-0.1c-0.2,0-0.4,0-0.6,0c-0.6,0-1.2-0.1-1.9-0.1c-0.3,0-0.5,0-0.8-0.1c-0.6-0.1-1.1-0.1-1.7-0.2
		c-0.3,0-0.6-0.1-0.8-0.1c-0.6-0.1-1.1-0.2-1.7-0.3c-0.3,0-0.6-0.1-0.8-0.1c-0.6-0.1-1.2-0.2-1.8-0.4c-0.2-0.1-0.5-0.1-0.7-0.1
		c-0.9-0.2-1.7-0.4-2.5-0.6c-0.1,0-0.1,0-0.2-0.1c-0.3-0.1-0.6-0.2-1-0.3c-1.8-0.5-3.7-1.2-5.5-1.9c-1.5-0.6-3-1.2-4.5-1.7
		c-0.7-0.3-1.3-0.6-2-1c-0.1-0.1-0.3-0.2-0.4-0.2c-0.5-0.3-1.1-0.6-1.6-0.9c0,0,0,0,0,0c0,0-0.1,0-0.1-0.1c-0.5-0.3-0.9-0.5-1.4-0.8
		c0,0,0,0-0.1,0c-1.2-0.7-2.3-1.4-3.4-2.2c-1.9-1.4-3.7-2.7-5.2-4.1c0,0-0.1-0.1-0.1-0.1c-0.3-0.3-0.6-0.5-0.8-0.8
		c-0.1-0.1-0.1-0.1-0.2-0.2c-0.3-0.2-0.5-0.5-0.7-0.7c-0.1-0.1-0.1-0.1-0.2-0.2c-0.2-0.2-0.5-0.5-0.7-0.7c-0.1-0.1-0.1-0.2-0.2-0.2
		c-0.2-0.2-0.4-0.5-0.6-0.7c-0.1-0.1-0.1-0.2-0.2-0.2c-0.2-0.2-0.4-0.4-0.6-0.7c-0.1-0.1-0.1-0.2-0.2-0.2c-0.2-0.2-0.4-0.4-0.5-0.6
		c-0.1-0.1-0.1-0.2-0.2-0.2c-0.2-0.2-0.3-0.4-0.5-0.6c-0.1-0.1-0.1-0.1-0.2-0.2c-0.2-0.2-0.3-0.4-0.5-0.6c0,0-0.1-0.1-0.1-0.1
		c-0.7-1-1.3-1.9-1.9-2.8c0-0.1-0.1-0.1-0.1-0.2c-0.1-0.2-0.2-0.3-0.3-0.5c0-0.1-0.1-0.2-0.1-0.2c-0.1-0.1-0.2-0.3-0.2-0.4
		c0-0.1-0.1-0.2-0.1-0.3c-0.1-0.1-0.1-0.2-0.2-0.3c0-0.1-0.1-0.2-0.1-0.3c-0.1-0.1-0.1-0.2-0.2-0.3c0-0.1-0.1-0.2-0.1-0.2
		c0-0.1-0.1-0.2-0.1-0.3c0-0.1-0.1-0.2-0.1-0.2c0-0.1-0.1-0.2-0.1-0.2c0-0.1-0.1-0.1-0.1-0.2c0-0.1-0.1-0.1-0.1-0.2
		c0-0.1-0.1-0.1-0.1-0.2c0-0.1,0-0.1-0.1-0.2c0-0.1,0-0.1-0.1-0.2c0,0,0-0.1,0-0.1c0,0,0-0.1,0-0.1c0,0,0-0.1,0-0.1c0,0,0-0.1,0-0.1
		c0,0,0,0,0,0c0,0,0,0,0,0c-1.6,9.1-0.8,15.5,0.8,20c-6,0-11.1,0.8-15,1.6c-3.1,0.7-5.5,1.5-6.9,2c-1,0.3-1.5,0.6-1.5,0.6
		s-9.2-19.6,2.7-30.5c0,0-2.1,0.2-6.1,1.7c-1.3,0.5-2.9,1.1-4.7,2c1.3-6.1,5.2-15,16.2-19.6c9.5-3.4,22.7-4.1,40.9,1.7
		c0,0-4,0.2-9.1,1.8c-4.2,1.3-9.1,3.4-13,7.1v0c0,0.1-0.1,0.3-0.1,0.7c4.8-1.3,27.3-6.3,54.3,6.1c27.1,12.5,47.6-7.8,47.6-7.8
		s0,5-1.7,10.4c-1.3,4.2-3.7,8.7-7.9,11.2C330.9,85.8,385.6,89.9,413.4,74.7z M381.5,74.6c-2.5,0.4-5,0.7-7.7,1c0,0-0.1,0-0.1,0
		c-0.3,0-0.7,0.1-1,0.1c-1.3-2.3-2.6-4.5-4-6.7C373.2,70.9,377.5,72.7,381.5,74.6z M40.5,125.9c-0.3-3.4-0.5-6.8-0.7-10.3
		c0-0.6-0.1-1.2-0.1-1.7c0-0.4-0.1-0.8-0.1-1.2c0-0.2,0-0.3,0-0.5c0-0.1,0-0.3,0-0.4c0-0.2,0-0.4,0-0.6c-0.1-1-0.1-1.5-0.1-1.5
		S67.8,83,120.3,63.1c-3.1,4.3-5.9,8.8-8.4,13.5c-2.7,4.9-5,9.9-7.1,15c-28,13.6-43.3,27.1-44.4,28.1v0.7c0,0,0,0,0,0
		c-0.2,17.8,2,39.3,5.6,61.7c1,6.3,2.1,12.6,3.3,18.9c7.5,40.4,18.1,81.3,25.2,107.3c-7.9-18.2-14.4-36.3-19.7-53.6
		c-14-48.8-24.4-137-24.4-137c-2.3,16.4,0.3,48.1,3.8,77.6c-2.4-7.6-10.4-34.4-13.5-68.1C40.6,126.9,40.6,126.4,40.5,125.9z
		 M74.7,451.3c-6.2,1-12.5,2.1-18.7,3.2h0c-0.2,0-0.5,0.1-0.7,0.1c-5.3-20.3-10.1-52.9-15.4-72c0.2,18-0.2,52.2-0.1,75.3
		c-6.5,1.6-16.9,3.3-22.9,5.1C16,419.5,17.7,342,17.5,293.5c2.8,2.4,6.2,4.3,9.6,6c4.3,2.2,8.8,4.2,12.5,6.6c0,19.1-0.4,34.7-0.3,52
		c6-16.8,12.7-26.9,19.3-41c2.8,1.4,5.5,2.7,8.3,4c3.7,1.7,7.4,3.3,11.2,4.8c-7.8,11.2-15.3,23.8-22.5,37.8
		C62,384.1,68,431.3,74.7,451.3z M129.1,445.2l-11.7-44.7l-12.2-46.4c-0.2,20.9-0.6,85.8-0.6,93.3c-3.3,0.3-6.6,0.7-9.8,1.1
		c-1.7,0.2-3.4,0.4-5.1,0.6c-0.4-29.9,0.3-89.5,0.8-118.8c9.1,3.1,18.4,5.7,27.7,7.9c6.6,21.9,12.7,75.2,20.1,91.8
		c-0.2-17.3,0.8-69.3,1.2-87.4c2.7,0.5,5.5,1,8.2,1.4c2.4,0.4,4.9,0.8,7.3,1.1c-0.5,22-1.3,75.5-0.9,98.3L129.1,445.2z M245.4,526.5
		v5.6l-79.2-77.1l24.2,18.1l54.9,44.6l-28.9-19.1L245.4,526.5z M250.1,539.7v-11.5l56.5-56L250.1,539.7z M335.4,439.8
		c-3.4,0-6.9-0.1-10.4-0.1c0-6.7,0.2-16.9,0.4-26.5l0-22.1c-5.8,0.1-12.9,0.2-18.7,0.3c0.3,9.4,0.8,36.2,0.8,48.3
		c-3.8,0-7.6,0-11.4,0c-3.8,0-7.7,0-11.6,0.1c-0.3-19.8,0.2-70.5-0.5-89.5c3.7-0.2,7.4-0.4,11.1-0.7c3.8-0.3,7.7-0.6,11.5-0.9
		c0.4,7.8-0.5,27.9-0.2,35.6c5.8-0.2,12.9-0.4,18.7-0.7c-0.2-4.5,0-12.9,0.2-20.9l0-15.9c2.9-0.4,5.6-0.7,8.3-1.1
		c4.1-0.6,8-1.3,12.5-2c1.2,21.4,1.1,72.6,1.3,96.3C343.5,439.9,339.5,439.9,335.4,439.8z M402.2,339.9c1.2,23.4,1.2,77,1.4,104.2
		c-6.9-0.4-13.9-0.7-21.1-1c0,0,0,0,0,0h0l-1.3-98.2l0,0c-6.3,1.3-12.7,2.5-19.1,3.5c-0.1-2.5-0.3-5-0.4-7.6c0,0,0,0,0,0v0l29.2-7.1
		c9.8-2.8,19.5-6.1,29-10c0.1,1.8,0.2,3.7,0.3,5.5l0.3,5.1C414.4,336.4,408.3,338.2,402.2,339.9z M480.3,457.2
		c-1,1.4-2.3,2.5-3.8,3.4c-0.4,0.3-0.9,0.5-1.3,0.7c-0.9,0.4-4.6,0.7-5.6,0.9h-0.1c-1,0.2-1.9,0.3-3,0.3c-12.6,0.8-22.3-5-26-7.7
		c-1-0.7-1.6-1.2-1.6-1.2v0c-6.3-4.4-9.6-9.4-9.7-15.6c-0.2-7.3-0.3-14.7-0.6-22.3c3.1,0,6.3,0,9.3-0.1c3.3,0,6.5-0.1,9.7-0.2
		c0.1,4.2,0.2,8.4,0.3,12.6l0.2,9.2c0.2,1.1,2.2,10.8,8.1,10.9c0.1,0,0.1,0,0.2,0c0.1,0,0.3,0,0.4,0c0.1,0,0.3,0,0.4-0.1
		c0.1,0,0.2-0.1,0.3-0.1c0.1,0,0.2,0,0.3-0.1c0.1,0,0.3-0.1,0.4-0.2c0.1,0,0.1-0.1,0.2-0.1c0.2-0.1,0.4-0.2,0.5-0.3
		c0.1,0,0.2-0.1,0.2-0.1c0,0,0.1-0.1,0.1-0.1c0.1-0.1,0.2-0.1,0.3-0.2c3.4-2.8,4-8.8,3.9-12.4h0l0-0.3v-0.2l-0.6-22l0-0.1
		c-0.4-3.5-0.2-6.5-1-8.5c-0.8-2-1.5-3.1-1.5-3.2l-4.9-6l-24.9-33.2c-0.9-1.2-1.5-2.4-1.8-3.5c-0.4-1.1-0.6-2.1-0.7-2.9
		c0-0.1,0-0.2,0-0.3l0-0.2l-0.9-10.7c0,0-2.6-14.6,13.9-27l0.2-0.1c0,0,10.3-6.7,17.9-10.8c0.3-0.2,0.6-0.4,1-0.5l0,0h0
		c4.9-2.5,9.4-3.8,12.5-3.5c4.8,0.4,7.3,5.2,7.7,13.8l1,30.3c-2.9,1.4-6.4,2.7-9.8,4l-0.1,0c-3.5,1.2-6.9,2.4-9.8,3.5
		c-0.2-6.6-0.4-13.4-0.6-20.2c-0.3-8.9-2.8-11.8-7.7-8.9c-4.9,2.8-7.1,8.1-6.7,16c0.4,8.2,2.4,14.3,6,18.9c0.4,0.4,0.7,0.8,1.1,1.3
		l25,26.3c0.6,0.8,2.7,4.3,3.2,16.6c0,0,0,0,0,0l0.8,19.3c0.1,3.5,0.1,6.7,0.1,9.1c0.1,4.4,0.1,8.7,0.2,13
		C483.5,449.8,482.5,454.1,480.3,457.2z"/>
	<path class="st2" d="M39.3,358.1C39.3,358.1,39.3,358.1,39.3,358.1c-0.1-17.4,0.2-32.9,0.3-52C39.5,326.1,39.2,339.8,39.3,358.1z"
		/>
	<path class="st2" d="M78.1,325.8c-3.8-1.5-7.5-3.1-11.2-4.8c-2.8-1.3-5.5-2.6-8.3-4c2.8,1.4,3.5,1.8,6.3,3.1l-36.6,71.3l-1.3-91.9
		c-3.4-1.7-6.8-3.7-9.6-6c0.3,48.5-1.5,126-0.6,169.6l12.7-18.5v-40.1l10.3-21.7c5.3,19.1,10,51.7,15.4,72c0.2,0,0.5-0.1,0.7-0.1
		l5.6-11.8l-14.2-67.9l8.2-11.2C62.8,349.6,70.3,337.1,78.1,325.8z"/>
	<path class="st2" d="M155,345.2c-2.4-0.4-4.9-0.7-7.3-1.1c-2.7-0.4-5.5-0.9-8.2-1.4c2.7,0.5,3.7,0.7,6.4,1.1l-1.8,89.6l-5.8-3.3
		c-7.4-16.6-13.5-69.9-20.1-91.8c-9.4-2.2-18.6-4.8-27.7-7.9c-0.5,29.3-1.2,88.9-0.8,118.8c1.7-0.2,3.4-0.4,5.1-0.6l4.8-105.8
		l10.1,3.7l23.8,93.6l20.6,3.5C153.7,420.8,154.5,367.3,155,345.2z"/>
	<path class="st1" d="M193.1,349.4c-7.5-0.6-15-1.3-22.4-2.1c-0.4,21.1-1.2,73.8-0.8,95.4c3.8-0.2,7.7-0.4,11.6-0.5l0.8-85
		L193.1,349.4z"/>
	<path class="st2" d="M247.7,425.2c0-0.2,0-0.3,0-0.5C247.7,424.8,247.7,425,247.7,425.2z"/>
	<path class="st2" d="M247.6,427.5c0-0.2,0-0.5,0-0.7C247.7,427.1,247.7,427.3,247.6,427.5z"/>
	<path class="st2" d="M257.4,411.2l-0.4,10.2l-0.4,9l13.3,9c-0.2-8.9,0.8-39.6,0.6-48.5c-9.8,0.1-19.6,0.2-29.3,0.2
		c0,0.8,0,1.6,0,2.4h16.8L257.4,411.2z"/>
	<path class="st2" d="M247.8,423.5c0-0.1,0-0.3,0-0.5C247.8,423.2,247.8,423.4,247.8,423.5z"/>
	<path class="st2" d="M247.8,422c0-0.1,0-0.2,0-0.4C247.8,421.8,247.8,421.9,247.8,422z"/>
	<path class="st2" d="M219.9,440c2.2,0.4,4.7,0.6,7.5,0.7c-2.9-0.1-5.9-0.4-8.1-0.8C219.5,439.9,219.7,439.9,219.9,440z"/>
	<path class="st2" d="M221.6,398.2L221.6,398.2c0-2.8,0.1-5.5,0.2-8c0.5-16.5-2.7-32.5,16.5-33c0.4,0,0.8,0,1.2,0
		c20.1,0,20.4,12.2,20.5,12.7c3.5,0,7-0.1,10.5-0.2c-0.1-3.2-0.2-6.4-0.3-9.6c-0.1-3.6-4.1-6-12-7.4c-5.1-0.9-11.4-1.3-18.7-1.4
		c-7.4-0.1-13.5,0.3-18.5,1.1c-7.8,1.3-11.8,3.7-11.8,7.4c0,13.3-0.9,59.2-0.7,72.4c0.1,3,2.3,5.2,6.8,6.6c1.2,0.4,2.4,0.7,3.9,0.9
		l2.5-6.7V398.2z"/>
	<path class="st2" d="M247.6,428.4c0-0.1,0-0.2,0-0.4C247.6,428.1,247.6,428.3,247.6,428.4z"/>
	<path class="st2" d="M248.6,396.7c0,1.2-0.1,4.8-0.2,9.2c-0.1,2.1-0.2,4.5-0.2,6.8C248.4,405.6,248.6,398.5,248.6,396.7z"/>
	<path class="st2" d="M247.7,426.3c0-0.2,0-0.4,0-0.5C247.7,425.9,247.7,426.1,247.7,426.3z"/>
	<path class="st2" d="M230.4,429.2l-8.8,3.9c0,0,19.4,7.8,32.1-0.9l-6.1-0.8c0-0.2,0-0.5,0-0.7c0-0.4,0-1.2,0-2.1c0,0,0,0,0,0
		c0,0.4,0,0.8,0,1.1c0,1.8-0.8,3.2-2.4,4c-1.3,0.7-3.1,1.1-5.4,1.2h0c-0.2,0-0.5,0-0.7,0c-0.3,0-0.7,0-1,0c-0.1,0-0.3,0-0.4,0
		c-4.8-0.2-7.2-1.8-7.2-5c0-0.6,0-1.4,0-2.2c0,0,0,0,0,0C230.4,428.2,230.4,428.7,230.4,429.2z"/>
	<path class="st2" d="M230.6,397.7L230.6,397.7c0.2-14.5,0.4-29.4,0.3-35.5C231,368.3,230.8,383.2,230.6,397.7z"/>
	<path class="st2" d="M420.2,329.3c-0.1-1.8-0.2-3.7-0.3-5.5c-9.5,3.9-19.1,7.2-29,10l0.1,0l1.3,109.8l-9.8-0.4c0,0,0,0,0,0
		c7.2,0.3,14.2,0.6,21.1,1c-0.2-27.2-0.2-80.8-1.4-104.2v-3.6L420.2,329.3z"/>
	<path class="st2" d="M361.9,343.7l-0.2-2.8c0,0,0,0,0,0c0.2,2.5,0.3,5.1,0.4,7.6c6.4-1.1,12.8-2.2,19.1-3.5l3.4-5.4L361.9,343.7z"
		/>
	<path class="st2" d="M346.1,343.7c-4.4,0.7-8.4,1.4-12.5,2l-0.6,37.9h-7.8c-5.8,0.3-12.8,0.5-18.7,0.7c-0.3-7.7,0.5-27.8,0.2-35.6
		c-3.8,0.4-7.7,0.7-11.5,0.9l0.9,90.2c3.8,0,7.6,0,11.4,0c0-12.1-0.5-38.9-0.8-48.3v-3.2l26.5-0.8l0.5,52.3c-3.4,0-5.2,0-8.7-0.1
		c3.5,0,7,0,10.4,0.1c4,0,8,0.1,12,0.1C347.2,416.3,347.4,365.1,346.1,343.7z"/>
	<path class="st2" d="M483,422.2l-0.8-19.3c0,0,0,0,0,0c-0.5-12.3-2.6-15.9-3.2-16.6l-7.1,6.5v44.5c0,0,0.5,13.6-15.5,10.8
		c-0.1,0-0.1,0-0.2,0c-5.9-0.2-7.9-9.8-8.1-10.9l-7.7,7.3c0,0,14.3,18,32.6,5.8l7.2,6.9c2.2-3,3.2-7.3,3.1-12.8
		c-0.1-4.3-0.1-8.6-0.2-13C483.2,428.9,483.1,425.8,483,422.2z"/>
	<path class="st2" d="M456.9,448c0.1,0,0.3,0,0.4-0.1C457.2,448,457.1,448,456.9,448z"/>
	<path class="st2" d="M458.3,447.6c0.1,0,0.1-0.1,0.2-0.1C458.5,447.5,458.4,447.6,458.3,447.6z"/>
	<path class="st2" d="M447.7,415.4l0.3,12.6C447.9,423.8,447.8,419.6,447.7,415.4z"/>
	<path class="st2" d="M451.9,368.7c-16.9-20.1-21.8-35.3-0.7-50.7c21-15.4,20.8,12.4,20.8,12.4v18.9l-0.1,0.1c3.4-1.2,6.9-2.6,9.8-4
		l-1-30.3c-0.4-8.6-2.9-13.4-7.7-13.8c-3.1-0.3-7.6,1-12.5,3.5h0l0,0c-0.3,0.2-0.6,0.4-1,0.5c-7.6,4.1-17.9,10.8-17.9,10.8l-0.2,0.1
		c-16.6,12.4-13.9,27-13.9,27l0.9,10.7l0,0.2c0,0.1,0,0.2,0,0.3c0.1,0.8,0.3,1.8,0.7,2.9c0.4,1.1,0.9,2.3,1.8,3.5l24.9,33.2l4.9,6
		c0,0,0.7,1.2,1.5,3.2l9.9-10.5C472,392.7,468.9,388.8,451.9,368.7z"/>
	<path class="st2" d="M440.5,425.2l7.1-9.8c-3.2,0.1-6.4,0.2-9.7,0.2c-3.1,0-6.2,0.1-9.3,0.1c0.2,7.5,0.4,15,0.6,22.3
		c0.1,6.3,3.4,11.3,9.7,15.6v0c0,0,0.6,0.5,1.6,1.2v-10.3V425.2z"/>
	<path class="st2" d="M457.7,447.8c0.1,0,0.2,0,0.3-0.1C457.9,447.8,457.8,447.8,457.7,447.8z"/>
	<path class="st1" d="M64.9,320.2c-2.8-1.3-3.6-1.7-6.3-3.1c-6.6,14.1-13.3,24.2-19.3,41c0,0,0,0,0,0c-0.1-18.3,0.2-32.1,0.3-52
		c-3.7-2.4-8.1-4.3-12.5-6.6l1.3,91.9L64.9,320.2z"/>
	<path class="st1" d="M61.6,442.7l-5.6,11.8h0c6.2-1.1,12.5-2.2,18.7-3.2C68,431.3,62,384.1,55.6,363.6l-8.2,11.2L61.6,442.7z"/>
	<path class="st1" d="M29.5,444.6l-12.7,18.5c6-1.8,16.4-3.6,22.9-5.1c-0.2-23.1,0.3-57.3,0.1-75.3l-10.3,21.7V444.6z"/>
	<path class="st1" d="M145.9,343.8c-2.7-0.4-3.7-0.6-6.4-1.1c-0.4,18.1-1.4,70.1-1.2,87.4l5.8,3.3L145.9,343.8z"/>
	<path class="st1" d="M109.7,346.4l-10.1-3.7l-4.8,105.8c3.2-0.4,6.5-0.7,9.8-1.1c0.1-7.5,0.5-72.3,0.6-93.3l12.2,46.4l11.7,44.7
		l25-1.7l-20.6-3.5L109.7,346.4z"/>
	<path class="st2" d="M182.2,357.2l-0.8,85c3.6-0.2,7.3-0.3,11-0.4c-0.4-20.2,0.4-72.3,0.6-92.3L182.2,357.2z"/>
	<path class="st1" d="M239.4,357.2c5.7,0,8.7,1.7,8.7,5.1c0.1,2.6,0.1,5.1,0.1,7.7c3.9,0,7.7,0,11.6-0.1
		C259.8,369.4,259.5,357.2,239.4,357.2z"/>
	<path class="st1" d="M238.2,357.2c-19.2,0.6-15.9,16.5-16.5,33c-0.1,2.5-0.2,5.2-0.2,8l0,0v34.8l8.8-3.9c0-0.5,0-1.1,0-1.6
		c0,0,0,0,0,0c0,0,0,0,0,0c0-3.4,0-8.3,0.1-13.9c0-4.9,0.1-10.4,0.2-16l0,0c0.2-14.5,0.4-29.4,0.3-35.5
		C230.9,359,233.3,357.4,238.2,357.2z"/>
	<path class="st1" d="M247.6,430.7c0,0.3,0,0.5,0,0.7l6.1,0.8c-12.7,8.7-32.1,0.9-32.1,0.9l-2.5,6.7l0,0c0.1,0,0.1,0,0.2,0
		c2.2,0.3,5.2,0.7,8.1,0.8c0.5,0,1,0,1.5,0.1c1.7,0,3.4,0,5.3,0c1.3,0,2.5-0.1,3.7-0.2h0c2.5-0.2,4.9-0.5,7.2-1
		c4-0.8,6.8-1.9,8.5-3.4c0.3-0.3,0.6-0.6,0.9-0.8c1.8,0,3.7,0,5.5,0c0.7,1.4,1.5,2.8,2.2,4.1c2.6,0,5.2,0.1,7.8,0.1l-13.3-9l0.4-9
		l0.4-10.2l0.7-17.6h-16.8v0c0,1,0,2.1,0.1,3.1c2.4,0,4.8,0,7.2,0c0,1.8-0.2,8.9-0.5,16c-0.1,3.1-0.2,6.2-0.3,8.9c0,0.1,0,0.2,0,0.4
		c0,0.3,0,0.7,0,1c0,0.2,0,0.3,0,0.5c0,0.4,0,0.8,0,1.1c0,0.2,0,0.3,0,0.5c0,0.2,0,0.4,0,0.6c0,0.2,0,0.4,0,0.5c0,0.2,0,0.4,0,0.6
		c0,0.2,0,0.5,0,0.7c0,0.2,0,0.3,0,0.5c0,0.1,0,0.2,0,0.4c0,0,0,0.1,0,0.1h0c0,0,0,0,0,0C247.6,429.5,247.6,430.2,247.6,430.7z"/>
	<path class="st1" d="M284.1,350.3c0.7,19.1,0.1,69.7,0.5,89.5c3.9,0,7.7-0.1,11.6-0.1l-0.9-90.2
		C291.5,349.8,287.8,350.1,284.1,350.3z"/>
	<path class="st1" d="M333.7,439.8l-0.5-52.3l-26.5,0.8v3.2c5.8-0.1,13-0.2,18.7-0.3l0,22.1c-0.2,9.6-0.4,19.8-0.4,26.5
		C328.5,439.8,330.3,439.8,333.7,439.8z"/>
	<path class="st1" d="M333.6,345.7c-2.7,0.4-5.4,0.8-8.3,1.1l0,15.9c-0.1,8-0.3,16.4-0.2,20.9h7.8L333.6,345.7z"/>
	<polygon class="st1" points="391.1,333.7 390.9,333.8 361.7,340.8 361.7,340.8 361.9,343.7 384.6,339.4 381.2,344.9 381.2,344.9 
		382.5,443.1 382.5,443.1 392.3,443.5 	"/>
	<path class="st1" d="M402.2,336.3v3.6c6.2-1.7,12.2-3.5,18.3-5.5l-0.3-5.1L402.2,336.3z"/>
	<path class="st1" d="M472,330.4c0,0,0.2-27.8-20.8-12.4c-21,15.4-16.2,30.6,0.7,50.7c17,20.1,20.1,24,20.1,24l7.1-6.5l-25-26.3
		c-0.4-0.4-0.8-0.9-1.1-1.3c-3.6-4.6-5.6-10.7-6-18.9c-0.4-7.9,1.9-13.2,6.7-16c4.9-2.9,7.4,0,7.7,8.9c0.2,6.8,0.4,13.6,0.6,20.2
		c2.9-1.1,6.3-2.3,9.8-3.5l0.1,0l0.1-0.1V330.4z"/>
	<path class="st1" d="M472,437.2v-44.5l-9.9,10.5c0.8,2,0.5,5,1,8.5l0,0.1l0.6,22v0.2l0,0.3h0c0,3.6-0.5,9.6-3.9,12.4
		c-0.1,0.1-0.2,0.1-0.3,0.2c0,0-0.1,0.1-0.1,0.1c-0.1,0.1-0.1,0.1-0.2,0.1c-0.2,0.1-0.4,0.2-0.5,0.3c-0.1,0-0.1,0.1-0.2,0.1
		c-0.1,0.1-0.2,0.1-0.4,0.2c-0.1,0-0.2,0.1-0.3,0.1c-0.1,0-0.2,0.1-0.3,0.1c-0.1,0-0.3,0-0.4,0.1c-0.1,0-0.3,0-0.4,0
		C472.5,450.8,472,437.2,472,437.2z"/>
	<path class="st1" d="M440.5,444.4v10.3c3.7,2.6,13.5,8.5,26,7.7c1.1,0,2-0.1,3-0.3h0.1c1-0.2,4.7-0.5,5.6-0.9
		c0.5-0.2,0.9-0.4,1.3-0.7c1.5-0.8,2.8-2,3.8-3.4l-7.2-6.9C454.9,462.5,440.5,444.4,440.5,444.4z"/>
	<polygon class="st1" points="440.5,444.4 448.2,437.1 448,427.9 447.7,415.4 440.5,425.2 	"/>
	<polygon class="st2" points="190.5,473.2 166.3,455.1 245.4,532.2 245.4,526.5 216.5,498.7 245.4,517.8 	"/>
	<polygon class="st2" points="250.1,539.7 306.6,472.2 250.1,528.2 	"/>
	<path class="st4" d="M252.8,495.8c0.6,0,1.1-0.1,1.7-0.2c0,0-1.7-5.7,1.3-9.1c3.1-3.4,3.4-1.2,4.6-4.4c1.2-3.1,5.9,0.8,4.7-6.2
		c-1-6.2-2.1-11.1-6.2-11.1c-0.5,0-1.1,0.1-1.8,0.3c-1.4,0.4-2.8,0.6-4.1,0.6c-4,0-7.4-1.8-7.4-5.4v-8.1H236v19.6h-13.1l6.2,6.2
		c0,0-0.2,1.7,2.1,4.2c0.9,1,1.8,1.4,2.5,1.4c1.1,0,2-0.9,2.8-2.3c0.6-0.9,1.2-1.5,2-1.5c1.1,0,2.4,1.1,3.7,3.7
		c2.2,4.5,4.3,4.7,4.6,7.8C247.1,494.1,249.9,495.8,252.8,495.8z"/>
	<path class="st4" d="M216.4,41.3l6.5-1c1.9-0.4,6-1.6,5.3-6.2v0c-0.2-1.4-0.4-2.7-0.5-3.4c-0.9,0.1-1.1,0.1-2,0.2
		c-1.3,0.2-2.6,0.3-3.8,0.5c0.2,1.3,0.1,0.8,0.3,2.2c0.2,1.3-0.6,2.2-2.2,2.6c-1.4,0.3-2.3,0-2.6-1c-0.1-0.1-0.1-0.3-0.1-0.5
		c-0.3-1.7-0.5-3-0.7-4.3h0c-0.2-1.6-0.6-3.9-0.9-5.8c0-0.2,0-0.3,0-0.5c0-1.1,0.8-1.7,2.2-1.7c1.7-0.1,2.7,0.5,2.9,1.8
		c0.2,1.3,0.1,0.9,0.3,2.2c1.3-0.2,2.5-0.4,3.8-0.6c0.9-0.2,1.1-0.2,2-0.4c-0.1-0.7-0.3-2.1-0.5-3.4l0,0c-0.7-4.6-4.9-4.6-6.9-4.4
		l-6.5,1c-4.6,0.7-4,4.5-4,4.5l1.3,8.4l0.1,1l0.9,5.8C211.2,38.2,211.8,42,216.4,41.3z"/>
	<path class="st4" d="M236.5,38.8h7.2c0-4.9,0-12.5,0-17.8h6.4v-4.6h-20v4.6h6.4V38.8z"/>
	<path class="st4" d="M257.3,28.5c-2,3.1-4.6,7.4-6.8,10.9l3.3,0.5l2,0.3c1.8-3.1,3.6-6,5.3-8.8c1,3.6,1.9,7,3,10.1l6.9,1.1
		c-1.1-3.5-2.2-7.5-3.2-11.9c1.9-3.5,3.8-6.7,5.6-9.5c0.3-0.5,0.6-1,0.9-1.4l-5.8-0.9c-1.6,2.8-3.2,5.7-4.7,8.3
		c-0.2,0.3-0.4,0.7-0.6,1c0,0,0,0,0,0c-0.2-1.2-0.4-2.4-0.6-3.6c0-0.2-0.1-0.5-0.1-0.7c-0.1-0.9-0.3-1.8-0.5-2.7
		c0-0.2-0.1-0.4-0.1-0.6c0-0.3-0.1-0.6-0.2-0.9c0-0.2-0.1-0.4-0.1-0.6c0-0.1,0-0.2,0-0.3c-0.1-0.3-0.1-0.7-0.2-1l-6.3-1
		c0.9,3.6,1.9,7.7,2.8,11C257.6,28,257.4,28.2,257.3,28.5z"/>
	<path class="st4" d="M270.3,16.3L270.3,16.3C270.3,16.3,270.3,16.3,270.3,16.3C270.3,16.3,270.3,16.3,270.3,16.3z"/>
</g>
</svg>
